STARTFONT 2.3
FONT -FontForge-Hanalei-Book-R-Normal--16-160-72-72-P-80-ISO10646-1
SIZE 16 72 72  4
FONTBOUNDINGBOX 21 22 -1 -5
COMMENT "Generated by fontforge, http://fontforge.sourceforge.net"
COMMENT "Copyright (c) 2012 by Brian J. Bonislawsky DBA Astigmatic (AOETI) (astigma@astigmatic.com), with ReservedFont Name "Hanalei""
STARTPROPERTIES 40
FOUNDRY "FontForge"
FAMILY_NAME "Hanalei"
WEIGHT_NAME "Book"
SLANT "R"
SETWIDTH_NAME "Normal"
ADD_STYLE_NAME ""
PIXEL_SIZE 16
POINT_SIZE 160
RESOLUTION_X 72
RESOLUTION_Y 72
SPACING "P"
AVERAGE_WIDTH 80
CHARSET_REGISTRY "ISO10646"
CHARSET_ENCODING "1"
FONTNAME_REGISTRY ""
CHARSET_COLLECTIONS "ISO8859-2 ISO8859-9 ISO8859-4 ISO10646-1"
BITS_PER_PIXEL 4
FONT_NAME "Hanalei-Regular"
FACE_NAME "Hanalei"
COPYRIGHT "Copyright (c) 2012 by Brian J. Bonislawsky DBA Astigmatic (AOETI) (astigma@astigmatic.com), with ReservedFont Name "Hanalei""
FONT_VERSION "1.000"
FONT_ASCENT 13
FONT_DESCENT 3
UNDERLINE_POSITION -2
UNDERLINE_THICKNESS 1
X_HEIGHT 10
CAP_HEIGHT 10
RAW_ASCENT 799
RAW_DESCENT 200
NORM_SPACE 3
RELATIVE_WEIGHT 40
RELATIVE_SETWIDTH 50
SUPERSCRIPT_X 0
SUPERSCRIPT_Y 7
SUPERSCRIPT_SIZE 10
SUBSCRIPT_X 0
SUBSCRIPT_Y 2
SUBSCRIPT_SIZE 10
AVG_LOWERCASE_WIDTH 86
AVG_UPPERCASE_WIDTH 84
ENDPROPERTIES
CHARS 366
STARTCHAR space
ENCODING 32
SWIDTH 200 0
DWIDTH 3 0
BBX 1 1 0 0
BITMAP
00
ENDCHAR
STARTCHAR exclam
ENCODING 33
SWIDTH 257 0
DWIDTH 4 0
BBX 4 12 0 -1
BITMAP
4665
4206
3305
4626
5326
3324
4324
3663
0430
4351
3571
0220
ENDCHAR
STARTCHAR quotedbl
ENCODING 34
SWIDTH 476 0
DWIDTH 8 0
BBX 8 7 0 5
BITMAP
26624660
51146060
41235060
66458571
50245060
60056051
36635661
ENDCHAR
STARTCHAR numbersign
ENCODING 35
SWIDTH 1076 0
DWIDTH 17 0
BBX 17 12 0 0
BITMAP
013000031000000000
173A507371766A6640
060660606060055670
0606525060A6766050
385846957050505050
240606705050625150
150B11906161896580
384765757185150060
241680346066666630
240624076026555300
420605049060000600
4665058A7036555500
ENDCHAR
STARTCHAR dollar
ENCODING 36
SWIDTH 453 0
DWIDTH 7 0
BBX 7 15 0 -2
BITMAP
00264000
00605100
00505510
00786260
56351060
60037520
67795000
46163620
00740070
002B6280
46454460
60037630
36846000
01505000
00657000
ENDCHAR
STARTCHAR percent
ENCODING 37
SWIDTH 889 0
DWIDTH 14 0
BBX 14 12 0 0
BITMAP
01000000000000
29546105510000
51736504230000
40541432500000
41540474500000
45470550521010
37479352486463
00000264506465
00000516414224
00000505427414
00000505551605
00000352164594
ENDCHAR
STARTCHAR ampersand
ENCODING 38
SWIDTH 627 0
DWIDTH 10 0
BBX 10 13 0 -1
BITMAP
0036552000
0196355670
0520647770
0060691160
0064460600
0067055100
0246127000
1605557566
7029B12405
8076140757
7523480340
6466356600
0200000000
ENDCHAR
STARTCHAR quotesingle
ENCODING 39
SWIDTH 246 0
DWIDTH 4 0
BBX 4 7 0 5
BITMAP
2662
5114
4123
6645
5024
6005
3663
ENDCHAR
STARTCHAR parenleft
ENCODING 40
SWIDTH 387 0
DWIDTH 6 0
BBX 8 14 -1 -1
BITMAP
00002000
00026730
00060160
00450700
00754400
04307000
16042000
18191000
08737000
00714600
00380610
00061071
00007043
00004660
ENDCHAR
STARTCHAR parenright
ENCODING 41
SWIDTH 386 0
DWIDTH 6 0
BBX 8 14 -1 -1
BITMAP
00020000
01855000
04307000
00703700
00265710
00060160
00016043
0000A062
00063690
00462610
00706600
07107000
16061000
04750000
ENDCHAR
STARTCHAR asterisk
ENCODING 42
SWIDTH 517 0
DWIDTH 8 0
BBX 8 8 0 4
BITMAP
00045000
00055100
36266055
61474816
15710753
00776620
06164270
03620640
ENDCHAR
STARTCHAR plus
ENCODING 43
SWIDTH 458 0
DWIDTH 7 0
BBX 7 8 0 1
BITMAP
00265000
00504200
36879650
60033060
63556570
03626110
00648000
00021000
ENDCHAR
STARTCHAR comma
ENCODING 44
SWIDTH 228 0
DWIDTH 4 0
BBX 5 6 -1 -3
BITMAP
001000
017710
060240
511600
277000
001000
ENDCHAR
STARTCHAR hyphen
ENCODING 45
SWIDTH 465 0
DWIDTH 7 0
BBX 7 4 0 3
BITMAP
36577660
60024060
54666670
02010010
ENDCHAR
STARTCHAR period
ENCODING 46
SWIDTH 202 0
DWIDTH 3 0
BBX 3 4 0 -1
BITMAP
1520
6160
6260
0310
ENDCHAR
STARTCHAR slash
ENCODING 47
SWIDTH 453 0
DWIDTH 7 0
BBX 7 11 0 0
BITMAP
00007740
00015070
00070250
00285600
00601600
00605100
05736000
06045000
44070000
70150000
16720000
ENDCHAR
STARTCHAR zero
ENCODING 48
SWIDTH 646 0
DWIDTH 10 0
BBX 12 13 -1 -1
BITMAP
000047200000
000060960000
000621643000
004827405300
006045654600
074260080170
1A4910028016
0701622A4572
027047734810
001A37106100
0002A0061000
000017720000
000000100000
ENDCHAR
STARTCHAR one
ENCODING 49
SWIDTH 400 0
DWIDTH 6 0
BBX 7 13 -1 -1
BITMAP
00003000
0006A670
04606060
15036060
07559560
00216060
00006060
00007250
00017370
00006060
00015060
00036370
00002300
ENDCHAR
STARTCHAR two
ENCODING 50
SWIDTH 502 0
DWIDTH 8 0
BBX 8 12 0 -1
BITMAP
00468500
04407520
53066062
60525207
16404867
00084045
00626440
17204400
35069662
65655006
55666655
02011020
ENDCHAR
STARTCHAR three
ENCODING 51
SWIDTH 456 0
DWIDTH 7 0
BBX 7 12 0 -1
BITMAP
36556300
60000830
36574660
00672630
06468300
15717100
06800650
002A66B0
46670060
60034660
53663000
03000000
ENDCHAR
STARTCHAR four
ENCODING 52
SWIDTH 514 0
DWIDTH 8 0
BBX 9 12 -1 -1
BITMAP
0000679630
0002506330
0017052420
00654C6530
0240670420
16047A5670
1706050060
0187575750
0000060500
0000060510
0000073620
0000003100
ENDCHAR
STARTCHAR five
ENCODING 53
SWIDTH 500 0
DWIDTH 8 0
BBX 8 12 0 0
BITMAP
00000010
26779572
32335015
32466561
43430000
57569690
15005746
05555605
00000505
46686875
60041046
56576580
ENDCHAR
STARTCHAR six
ENCODING 54
SWIDTH 520 0
DWIDTH 8 0
BBX 9 13 0 -1
BITMAP
0012000000
0074710000
0060600000
0330600000
0763700000
0604740000
0606049000
3848362730
5116586160
6048503910
6060026300
66A1640000
0016000000
ENDCHAR
STARTCHAR seven
ENCODING 55
SWIDTH 423 0
DWIDTH 7 0
BBX 7 12 0 -1
BITMAP
76696650
60050070
76676690
00093330
00073700
00240600
00842400
00617200
02406000
07006000
05673000
00010000
ENDCHAR
STARTCHAR eight
ENCODING 56
SWIDTH 527 0
DWIDTH 8 0
BBX 9 12 0 -1
BITMAP
2766956700
6100426800
7869680700
0703731600
0384605000
00A1155000
0426055000
0607826000
5128911600
7062170520
29766A7C10
0130010100
ENDCHAR
STARTCHAR nine
ENCODING 57
SWIDTH 500 0
DWIDTH 8 0
BBX 9 12 0 -1
BITMAP
0026677200
5656006710
6003564700
8386B32400
7406537100
0525116000
0069151000
0043570000
0060340000
0420600000
0273600000
0003000000
ENDCHAR
STARTCHAR colon
ENCODING 58
SWIDTH 245 0
DWIDTH 4 0
BBX 4 10 0 -1
BITMAP
0320
3452
2451
0330
0000
0000
0440
3342
2561
0220
ENDCHAR
STARTCHAR semicolon
ENCODING 59
SWIDTH 270 0
DWIDTH 4 0
BBX 5 12 -1 -3
BITMAP
001300
007260
007160
001410
000000
000000
001100
006640
042060
250600
076200
001000
ENDCHAR
STARTCHAR less
ENCODING 60
SWIDTH 445 0
DWIDTH 7 0
BBX 7 9 0 1
BITMAP
00005710
00482060
16451550
60027100
64580000
6333A100
26451550
00363060
00004710
ENDCHAR
STARTCHAR equal
ENCODING 61
SWIDTH 484 0
DWIDTH 8 0
BBX 8 8 0 2
BITMAP
02011010
45559671
60005042
17666670
02011010
45559671
60005042
17666670
ENDCHAR
STARTCHAR greater
ENCODING 62
SWIDTH 445 0
DWIDTH 7 0
BBX 7 9 0 1
BITMAP
06600000
61175000
46163620
00740060
00076370
01852460
56153630
51264000
06600000
ENDCHAR
STARTCHAR question
ENCODING 63
SWIDTH 455 0
DWIDTH 7 0
BBX 7 13 0 -1
BITMAP
03000000
44664000
60018660
46541060
002A66A0
02700650
06726100
05180000
06570000
02510000
07160000
06260000
01300000
ENDCHAR
STARTCHAR at
ENCODING 64
SWIDTH 812 0
DWIDTH 13 0
BBX 13 13 0 -1
BITMAP
02656657553000
19003205177100
18766556652300
05515464553500
37655230571500
23523656552500
14631404428520
37676657766140
23653023056160
33616565566B10
52657520000100
07823050000000
00034530000000
ENDCHAR
STARTCHAR A
ENCODING 65
SWIDTH 507 0
DWIDTH 8 0
BBX 9 12 0 0
BITMAP
0012000000
0084700000
0060780000
0430650000
0864524000
0604946000
0606606300
3848A66530
5116510060
6034566910
6055260600
6670066610
ENDCHAR
STARTCHAR B
ENCODING 66
SWIDTH 533 0
DWIDTH 9 0
BBX 9 13 0 -1
BITMAP
0276100000
2B01592000
1B51154640
1519740160
5746577920
3309603600
2406357000
4749712710
3207970620
3568717640
5810336510
4805640000
0271000000
ENDCHAR
STARTCHAR C
ENCODING 67
SWIDTH 515 0
DWIDTH 8 0
BBX 9 13 0 -1
BITMAP
0141100000
0625786700
0600320420
0768656800
0A57000000
0606000000
1506000000
4756000000
4216001300
6038A65610
7243510330
1A66666600
0330000000
ENDCHAR
STARTCHAR D
ENCODING 68
SWIDTH 520 0
DWIDTH 8 0
BBX 9 13 0 -1
BITMAP
0256000000
2951600000
1940271000
1436067000
5749622600
3306350160
2406066740
4746642440
421B544300
3306045000
5106440000
4668600000
0014000000
ENDCHAR
STARTCHAR E
ENCODING 69
SWIDTH 490 0
DWIDTH 8 0
BBX 8 12 0 0
BITMAP
02301001
27399656
15065006
14086664
57460000
33095710
24060140
47486710
42171000
33089564
51065006
46676663
ENDCHAR
STARTCHAR F
ENCODING 70
SWIDTH 475 0
DWIDTH 8 0
BBX 8 12 0 0
BITMAP
02301001
27399656
15065006
14086664
57460000
33095710
24060140
47486710
42160000
33060000
51060000
46650000
ENDCHAR
STARTCHAR G
ENCODING 71
SWIDTH 557 0
DWIDTH 9 0
BBX 9 13 0 -1
BITMAP
0141100000
0625786700
0600320420
0768656800
0A57000000
0606016620
1506051150
4756023150
4216047460
6038A73060
7243524060
1A66677650
0330000000
ENDCHAR
STARTCHAR H
ENCODING 72
SWIDTH 611 0
DWIDTH 10 0
BBX 10 12 0 0
BITMAP
0230002410
2637026280
1506006060
1506006060
5746029560
3306005060
2406009666
4749657006
3206504575
330A767160
5106033060
4665036650
ENDCHAR
STARTCHAR I
ENCODING 73
SWIDTH 266 0
DWIDTH 4 0
BBX 4 12 0 0
BITMAP
0230
2637
1506
1506
5746
3306
2406
4746
3206
3306
5106
4665
ENDCHAR
STARTCHAR J
ENCODING 74
SWIDTH 484 0
DWIDTH 8 0
BBX 9 13 -1 -1
BITMAP
0000003100
0000073630
0000060510
0000060500
0000095620
0000060610
0572060600
2407185620
1712860610
00862A0600
0035026610
0004339710
0000641000
ENDCHAR
STARTCHAR K
ENCODING 75
SWIDTH 541 0
DWIDTH 9 0
BBX 9 13 0 -1
BITMAP
0230000000
2737006720
1506044070
1406650350
5747663600
330A017000
2406075000
4749626000
421B964400
3307430700
5106060430
4665065710
0000001000
ENDCHAR
STARTCHAR L
ENCODING 76
SWIDTH 467 0
DWIDTH 7 0
BBX 8 12 0 0
BITMAP
02300000
26370000
15060000
15060000
57460000
33060000
24060000
47460000
32060000
330A8556
51074006
46686666
ENDCHAR
STARTCHAR M
ENCODING 77
SWIDTH 733 0
DWIDTH 12 0
BBX 12 12 0 0
BITMAP
002100022000
036550084700
0421B1150930
060453611740
095616855360
060757607560
160A15409060
47366183C060
602684648653
604260572424
606033190606
668017640867
ENDCHAR
STARTCHAR N
ENCODING 78
SWIDTH 598 0
DWIDTH 10 0
BBX 10 12 0 0
BITMAP
0130000310
274A408381
1506606060
1506615060
574846A570
3305066060
240B028060
4748557570
4316804360
3306330760
5106050580
4665068970
ENDCHAR
STARTCHAR O
ENCODING 79
SWIDTH 612 0
DWIDTH 10 0
BBX 10 13 0 -1
BITMAP
0141100000
0625776960
0600320480
0768657860
0A5700A670
0606006060
1506006060
4756007553
4216007352
60388863A3
7243050076
1A66666981
0330000000
ENDCHAR
STARTCHAR P
ENCODING 80
SWIDTH 513 0
DWIDTH 8 0
BBX 9 13 0 -1
BITMAP
0174000000
2B13671000
1A20066620
154A720060
47462A6820
4209810810
2408527100
4526260000
4439400000
3307000000
5106000000
5446000000
0220000000
ENDCHAR
STARTCHAR Q
ENCODING 81
SWIDTH 612 0
DWIDTH 10 0
BBX 10 15 0 -3
BITMAP
0141100000
0625776960
0600320480
0768657860
0A5700A670
0606006060
1506006060
4756007553
4216007352
60388863A3
7243050076
1A66677981
0335115000
0005335000
0000320000
ENDCHAR
STARTCHAR R
ENCODING 82
SWIDTH 532 0
DWIDTH 9 0
BBX 9 13 0 -1
BITMAP
0063000000
2B14560000
2A00076620
1659510060
47463A6720
4208721820
2409968200
3418406000
4549924500
3307270600
5106061160
6326016530
0340002100
ENDCHAR
STARTCHAR S
ENCODING 83
SWIDTH 442 0
DWIDTH 7 0
BBX 8 13 0 -1
BITMAP
00021430
38894260
75631370
70285320
16061000
06726000
01605200
00435700
000A1420
566A4071
60066170
74567710
12000000
ENDCHAR
STARTCHAR T
ENCODING 84
SWIDTH 453 0
DWIDTH 7 0
BBX 9 12 -1 0
BITMAP
0221311300
0634765530
1500310140
0569595600
0007451000
0008261000
0006060000
0006251000
0008471000
0006060000
0006050000
0007571000
ENDCHAR
STARTCHAR U
ENCODING 85
SWIDTH 583 0
DWIDTH 9 0
BBX 9 13 0 -1
BITMAP
0020002200
0847154450
0606041150
0606033150
2956057460
1506042060
2406015060
5646028560
5115018560
6038963570
7134600580
1A7666BA70
0340000000
ENDCHAR
STARTCHAR V
ENCODING 86
SWIDTH 506 0
DWIDTH 8 0
BBX 8 12 0 -1
BITMAP
56700464
70600606
60420606
53464735
46066024
06066050
0603A560
06634060
01541230
00660410
00768700
00141000
ENDCHAR
STARTCHAR W
ENCODING 87
SWIDTH 735 0
DWIDTH 12 0
BBX 12 12 0 -1
BITMAP
566001203663
706036535106
605174056042
63469736A560
550668266060
060744235060
060664885060
076704763460
024606660510
007506660600
007876172700
002410014100
ENDCHAR
STARTCHAR X
ENCODING 88
SWIDTH 483 0
DWIDTH 8 0
BBX 8 11 0 0
BITMAP
26600760
70425116
44076052
06396150
04850710
00803700
04828720
06055060
52076043
60415107
46601762
ENDCHAR
STARTCHAR Y
ENCODING 89
SWIDTH 484 0
DWIDTH 8 0
BBX 10 11 -1 0
BITMAP
0672006650
4307006061
1702652160
0165596520
0072330700
0006604200
0003846000
0006026000
0026061000
0061050000
0016640000
ENDCHAR
STARTCHAR Z
ENCODING 90
SWIDTH 458 0
DWIDTH 7 0
BBX 9 11 -1 0
BITMAP
0276865600
0420410830
0175765A20
0000A52400
0005217000
0017042000
0067160000
0160540000
0701A65600
1605410600
0388655500
ENDCHAR
STARTCHAR bracketleft
ENCODING 91
SWIDTH 420 0
DWIDTH 7 0
BBX 7 14 0 -1
BITMAP
00000400
03555350
37650160
32095410
33150000
66350000
61050000
42240000
63150000
63360000
51240000
60285630
63450060
05855640
ENDCHAR
STARTCHAR backslash
ENCODING 92
SWIDTH 453 0
DWIDTH 7 0
BBX 7 11 0 0
BITMAP
27810000
70140000
25070000
06476000
04206000
00605200
00626800
00260600
00061160
00024070
00007630
ENDCHAR
STARTCHAR bracketright
ENCODING 93
SWIDTH 420 0
DWIDTH 7 0
BBX 7 14 0 -1
BITMAP
13000000
63556100
60066810
25580500
00060600
00065920
00060420
00060600
00061610
00064620
00060510
55580320
60073540
65559200
ENDCHAR
STARTCHAR asciicircum
ENCODING 94
SWIDTH 353 0
DWIDTH 6 0
BBX 6 5 0 6
BITMAP
005300
051B10
254360
615533
161450
ENDCHAR
STARTCHAR underscore
ENCODING 95
SWIDTH 499 0
DWIDTH 8 0
BBX 8 4 0 -5
BITMAP
17668671
42005024
26556572
02001010
ENDCHAR
STARTCHAR grave
ENCODING 96
SWIDTH 183 0
DWIDTH 3 0
BBX 3 4 0 12
BITMAP
3610
7140
4260
0760
ENDCHAR
STARTCHAR a
ENCODING 97
SWIDTH 507 0
DWIDTH 8 0
BBX 9 12 0 0
BITMAP
0012000000
0084700000
0060780000
0430650000
0864524000
0604946000
0606606300
3848A66530
5116510060
6034566910
6055260600
6670066610
ENDCHAR
STARTCHAR b
ENCODING 98
SWIDTH 533 0
DWIDTH 9 0
BBX 9 13 0 -1
BITMAP
0276100000
2B01592000
1B51154640
1519740160
5746577920
3309603600
2406357000
4749712710
3207970620
3568717640
5810336510
4805640000
0271000000
ENDCHAR
STARTCHAR c
ENCODING 99
SWIDTH 515 0
DWIDTH 8 0
BBX 9 13 0 -1
BITMAP
0141100000
0625786700
0600320420
0768656800
0A57000000
0606000000
1506000000
4756000000
4216001300
6038A65610
7243510330
1A66666600
0330000000
ENDCHAR
STARTCHAR d
ENCODING 100
SWIDTH 520 0
DWIDTH 8 0
BBX 9 13 0 -1
BITMAP
0256000000
2951600000
1940271000
1436067000
5749622600
3306350160
2406066740
4746642440
421B544300
3306045000
5106440000
4668600000
0014000000
ENDCHAR
STARTCHAR e
ENCODING 101
SWIDTH 490 0
DWIDTH 8 0
BBX 8 12 0 0
BITMAP
02301001
27399656
15065006
14086664
57460000
33095710
24060140
47486710
42171000
33089564
51065006
46676663
ENDCHAR
STARTCHAR f
ENCODING 102
SWIDTH 475 0
DWIDTH 8 0
BBX 8 12 0 0
BITMAP
02301001
27399656
15065006
14086664
57460000
33095710
24060140
47486710
42160000
33060000
51060000
46650000
ENDCHAR
STARTCHAR g
ENCODING 103
SWIDTH 557 0
DWIDTH 9 0
BBX 9 13 0 -1
BITMAP
0141100000
0625786700
0600320420
0768656800
0A57000000
0606016620
1506051150
4756023150
4216047460
6038A73060
7243524060
1A66677650
0330000000
ENDCHAR
STARTCHAR h
ENCODING 104
SWIDTH 611 0
DWIDTH 10 0
BBX 10 12 0 0
BITMAP
0230002410
2637026280
1506006060
1506006060
5746029560
3306005060
2406009666
4749657006
3206504575
330A767160
5106033060
4665036650
ENDCHAR
STARTCHAR i
ENCODING 105
SWIDTH 266 0
DWIDTH 4 0
BBX 4 12 0 0
BITMAP
0230
2637
1506
1506
5746
3306
2406
4746
3206
3306
5106
4665
ENDCHAR
STARTCHAR j
ENCODING 106
SWIDTH 482 0
DWIDTH 8 0
BBX 9 13 -1 -1
BITMAP
0000003100
0000073630
0000060510
0000060500
0000095620
0000060610
0572060600
2407185620
1712860610
00862A0600
0035026610
0004339710
0000641000
ENDCHAR
STARTCHAR k
ENCODING 107
SWIDTH 541 0
DWIDTH 9 0
BBX 9 13 0 -1
BITMAP
0230000000
2737006720
1506044070
1406650350
5747663600
330A017000
2406075000
4749626000
421B964400
3307430700
5106060430
4665065710
0000001000
ENDCHAR
STARTCHAR l
ENCODING 108
SWIDTH 467 0
DWIDTH 7 0
BBX 8 12 0 0
BITMAP
02300000
26370000
15060000
15060000
57460000
33060000
24060000
47460000
32060000
330A8556
51074006
46686666
ENDCHAR
STARTCHAR m
ENCODING 109
SWIDTH 733 0
DWIDTH 12 0
BBX 12 12 0 0
BITMAP
002100022000
036550084700
0421B1150930
060453611740
095616855360
060757607560
160A15409060
47366183C060
602684648653
604260572424
606033190606
668017640867
ENDCHAR
STARTCHAR n
ENCODING 110
SWIDTH 598 0
DWIDTH 10 0
BBX 10 12 0 0
BITMAP
0130000310
274A408381
1506606060
1506615060
574846A570
3305066060
240B028060
4748557570
4316804360
3306330760
5106050580
4665068970
ENDCHAR
STARTCHAR o
ENCODING 111
SWIDTH 612 0
DWIDTH 10 0
BBX 10 13 0 -1
BITMAP
0141100000
0625776960
0600320480
0768657860
0A5700A670
0606006060
1506006060
4756007553
4216007352
60388863A3
7243050076
1A66666981
0330000000
ENDCHAR
STARTCHAR p
ENCODING 112
SWIDTH 513 0
DWIDTH 8 0
BBX 9 13 0 -1
BITMAP
0174000000
2B13671000
1A20066620
154A720060
47462A6820
4209810810
2408527100
4526260000
4439400000
3307000000
5106000000
5446000000
0220000000
ENDCHAR
STARTCHAR q
ENCODING 113
SWIDTH 612 0
DWIDTH 10 0
BBX 10 15 0 -3
BITMAP
0141100000
0625776960
0600320480
0768657860
0A5700A670
0606006060
1506006060
4756007553
4216007352
60388863A3
7243050076
1A66677981
0335115000
0005335000
0000320000
ENDCHAR
STARTCHAR r
ENCODING 114
SWIDTH 532 0
DWIDTH 9 0
BBX 9 13 0 -1
BITMAP
0063000000
2B14560000
2A00076620
1659510060
47463A6720
4208721820
2409968200
3418406000
4549924500
3307270600
5106061160
6326016530
0340002100
ENDCHAR
STARTCHAR s
ENCODING 115
SWIDTH 442 0
DWIDTH 7 0
BBX 8 13 0 -1
BITMAP
00021430
38894260
75631370
70285320
16061000
06726000
01605200
00435700
000A1420
566A4071
60066170
74567710
12000000
ENDCHAR
STARTCHAR t
ENCODING 116
SWIDTH 453 0
DWIDTH 7 0
BBX 9 12 -1 0
BITMAP
0221311300
0634765530
1500310140
0569595600
0007451000
0008261000
0006060000
0006251000
0008471000
0006060000
0006050000
0007571000
ENDCHAR
STARTCHAR u
ENCODING 117
SWIDTH 583 0
DWIDTH 9 0
BBX 9 13 0 -1
BITMAP
0020002200
0847154450
0606041150
0606033150
2956057460
1506042060
2406015060
5646028560
5115018560
6038963570
7134600580
1A7666BA70
0340000000
ENDCHAR
STARTCHAR v
ENCODING 118
SWIDTH 506 0
DWIDTH 8 0
BBX 8 12 0 -1
BITMAP
56700464
70600606
60420606
53464735
46066024
06066050
0603A560
06634060
01541230
00660410
00768700
00141000
ENDCHAR
STARTCHAR w
ENCODING 119
SWIDTH 735 0
DWIDTH 12 0
BBX 12 12 0 -1
BITMAP
566001203663
706036535106
605174056042
63469736A560
550668266060
060744235060
060664885060
076704763460
024606660510
007506660600
007876172700
002410014100
ENDCHAR
STARTCHAR x
ENCODING 120
SWIDTH 483 0
DWIDTH 8 0
BBX 8 11 0 0
BITMAP
26600760
70425116
44076052
06396150
04850710
00803700
04828720
06055060
52076043
60415107
46601762
ENDCHAR
STARTCHAR y
ENCODING 121
SWIDTH 484 0
DWIDTH 8 0
BBX 10 11 -1 0
BITMAP
0672006650
4307006061
1702652160
0165596520
0072330700
0006604200
0003846000
0006026000
0026061000
0061050000
0016640000
ENDCHAR
STARTCHAR z
ENCODING 122
SWIDTH 458 0
DWIDTH 7 0
BBX 9 11 -1 0
BITMAP
0276865600
0420410830
0175765A20
0000A52400
0005217000
0017042000
0067160000
0160540000
0701A65600
1605410600
0388655500
ENDCHAR
STARTCHAR braceleft
ENCODING 123
SWIDTH 473 0
DWIDTH 8 0
BBX 8 14 0 -1
BITMAP
00000020
00667553
04305015
00607650
00764400
22431600
74557610
60107800
45683700
00863300
00507000
06109561
06233024
00595571
ENDCHAR
STARTCHAR bar
ENCODING 124
SWIDTH 263 0
DWIDTH 4 0
BBX 4 14 0 -1
BITMAP
0120
2747
1406
1506
3525
5536
3306
2406
4736
4326
3306
4206
6006
2772
ENDCHAR
STARTCHAR braceright
ENCODING 125
SWIDTH 473 0
DWIDTH 8 0
BBX 8 14 0 -1
BITMAP
02000000
64576300
60060700
25821600
00548300
01516130
06365536
02C20006
03469561
00638300
00530600
35560610
60060620
55578200
ENDCHAR
STARTCHAR asciitilde
ENCODING 126
SWIDTH 456 0
DWIDTH 7 0
BBX 7 4 0 4
BITMAP
036A1760
06169160
51744710
46268700
ENDCHAR
STARTCHAR nonbreakingspace
ENCODING 160
SWIDTH 200 0
DWIDTH 3 0
BBX 1 1 0 0
BITMAP
00
ENDCHAR
STARTCHAR exclamdown
ENCODING 161
SWIDTH 259 0
DWIDTH 4 0
BBX 4 12 0 -1
BITMAP
0754
0506
0452
1663
2406
1415
4206
4467
3215
5105
5436
0230
ENDCHAR
STARTCHAR cent
ENCODING 162
SWIDTH 480 0
DWIDTH 8 0
BBX 8 15 0 -2
BITMAP
00056100
00330600
00141730
00198551
18515033
66016640
63761000
76540000
50420000
60387100
55546562
06663024
00157870
00332300
00366300
ENDCHAR
STARTCHAR sterling
ENCODING 163
SWIDTH 594 0
DWIDTH 10 0
BBX 10 11 0 0
BITMAP
0006751000
0066015810
0067520510
0060556600
36A5676000
6060604200
6380567100
0285631010
0060695680
0060550042
0075776560
ENDCHAR
STARTCHAR currency
ENCODING 164
SWIDTH 640 0
DWIDTH 10 0
BBX 10 10 0 1
BITMAP
0540100150
5242795616
5219443426
0486640790
0620656635
060572A026
0685292480
4427051736
5144946606
0540153261
ENDCHAR
STARTCHAR yen
ENCODING 165
SWIDTH 575 0
DWIDTH 9 0
BBX 9 11 0 0
BITMAP
0660007720
6134024070
4406260240
0525884600
00A0602600
0388A69500
0600320600
0613443600
0185482300
0070250000
0036710000
ENDCHAR
STARTCHAR brokenbar
ENCODING 166
SWIDTH 258 0
DWIDTH 4 0
BBX 4 15 0 -2
BITMAP
1661
4206
2315
5746
4205
4106
4665
0000
3664
3305
3425
5536
4205
5106
1662
ENDCHAR
STARTCHAR section
ENCODING 167
SWIDTH 474 0
DWIDTH 8 0
BBX 8 13 0 -1
BITMAP
00022430
46676260
65213260
52399520
452509A0
05477161
24055060
55597630
37640170
16886180
60024570
44566550
03000000
ENDCHAR
STARTCHAR dieresis
ENCODING 168
SWIDTH 351 0
DWIDTH 6 0
BBX 6 3 0 12
BITMAP
353461
605606
654663
ENDCHAR
STARTCHAR copyright
ENCODING 169
SWIDTH 719 0
DWIDTH 12 0
BBX 11 13 0 -1
BITMAP
036666564510
270050054780
377565668250
235045533250
567272256670
416288535150
325146004150
557238556570
415198565150
515242425250
617363365670
1B8575665720
010010000200
ENDCHAR
STARTCHAR ordfeminine
ENCODING 170
SWIDTH 455 0
DWIDTH 7 0
BBX 9 11 -1 0
BITMAP
0019A66000
0035406000
0060605100
01A3726600
0423941600
0664560600
1673480340
0677046620
0055556000
0060003300
0075557100
ENDCHAR
STARTCHAR guillemotleft
ENCODING 171
SWIDTH 689 0
DWIDTH 11 0
BBX 11 8 0 2
BITMAP
000210001100
003571016530
163034550160
600644204500
757504857000
451363621620
026042161160
001760006710
ENDCHAR
STARTCHAR logicalnot
ENCODING 172
SWIDTH 591 0
DWIDTH 9 0
BBX 9 7 0 0
BITMAP
2666765610
6000604670
6134537060
1522426050
0000005050
0000006060
0000002630
ENDCHAR
STARTCHAR uni00AD
ENCODING 173
SWIDTH 465 0
DWIDTH 7 0
BBX 7 4 0 3
BITMAP
36577660
60024060
54666670
02010010
ENDCHAR
STARTCHAR registered
ENCODING 174
SWIDTH 719 0
DWIDTH 12 0
BBX 11 13 0 -1
BITMAP
036666564510
270050054780
377565668250
235002003250
5672A4556670
416278665150
325156014150
557146006570
415266005150
515242425250
617363365670
1B8575665720
010010000200
ENDCHAR
STARTCHAR macron
ENCODING 175
SWIDTH 263 0
DWIDTH 4 0
BBX 5 3 0 12
BITMAP
100000
755610
756710
ENDCHAR
STARTCHAR degree
ENCODING 176
SWIDTH 333 0
DWIDTH 5 0
BBX 6 5 0 6
BITMAP
046610
154360
618551
663680
365540
ENDCHAR
STARTCHAR plusminus
ENCODING 177
SWIDTH 464 0
DWIDTH 7 0
BBX 7 11 0 -2
BITMAP
00266000
00503200
36879650
60024060
53556570
03626110
00548000
02041010
54568680
60023060
36666660
ENDCHAR
STARTCHAR twosuperior
ENCODING 178
SWIDTH 324 0
DWIDTH 5 0
BBX 5 6 0 5
BITMAP
544440
534350
033520
151400
505460
3A7460
ENDCHAR
STARTCHAR threesuperior
ENCODING 179
SWIDTH 332 0
DWIDTH 5 0
BBX 5 7 0 4
BITMAP
544450
544380
045440
045240
347150
424860
030000
ENDCHAR
STARTCHAR acute
ENCODING 180
SWIDTH 202 0
DWIDTH 3 0
BBX 4 4 0 12
BITMAP
0330
0652
6260
7700
ENDCHAR
STARTCHAR mu
ENCODING 181
SWIDTH 582 0
DWIDTH 9 0
BBX 9 13 0 -2
BITMAP
0767056640
0606060340
0606051230
0606076460
2956051060
1506033060
0606035260
1506028560
3758865760
2406600570
330876A870
5107101300
4655000000
ENDCHAR
STARTCHAR paragraph
ENCODING 182
SWIDTH 556 0
DWIDTH 9 0
BBX 9 13 0 -1
BITMAP
0000065000
0027614920
4656004820
6004693600
6678196620
4503870510
0364380600
0026162510
0000694710
0000070600
0000060600
0000082710
0000014100
ENDCHAR
STARTCHAR periodcentered
ENCODING 183
SWIDTH 215 0
DWIDTH 3 0
BBX 3 4 0 4
BITMAP
0100
5480
6060
1530
ENDCHAR
STARTCHAR cedilla
ENCODING 184
SWIDTH 237 0
DWIDTH 4 0
BBX 4 6 0 -4
BITMAP
0031
0256
0245
5767
6273
4400
ENDCHAR
STARTCHAR onesuperior
ENCODING 185
SWIDTH 286 0
DWIDTH 5 0
BBX 5 8 0 4
BITMAP
002000
034600
521700
626400
134400
004400
016610
001100
ENDCHAR
STARTCHAR ordmasculine
ENCODING 186
SWIDTH 476 0
DWIDTH 8 0
BBX 8 11 0 0
BITMAP
36679680
60007682
77769114
50503231
50525151
61659582
65304041
27666560
05555600
06000240
06555720
ENDCHAR
STARTCHAR guillemotright
ENCODING 187
SWIDTH 689 0
DWIDTH 11 0
BBX 11 8 0 2
BITMAP
011000020000
366100753000
610553403610
054015360060
007574047570
261263631550
511611506200
176000671000
ENDCHAR
STARTCHAR onequarter
ENCODING 188
SWIDTH 790 0
DWIDTH 13 0
BBX 13 12 0 0
BITMAP
00110000000000
01561155000000
43063224100000
51714505000000
04413835000000
00414515012000
00644441053300
00015450416620
00005164237410
00005056352910
00014043645720
00004510006520
ENDCHAR
STARTCHAR onehalf
ENCODING 189
SWIDTH 771 0
DWIDTH 12 0
BBX 12 13 0 -1
BITMAP
001100000000
015611550000
430632241000
517145050000
044138350000
004145150000
006444454444
000154552325
000051603544
000050505050
000140441456
00004512A846
000000001011
ENDCHAR
STARTCHAR threequarters
ENCODING 190
SWIDTH 817 0
DWIDTH 13 0
BBX 13 11 0 0
BITMAP
54445045300000
53439050500000
04444051300000
04524365100000
35625505002000
42486505024600
03000825143550
00000535509340
00003251752460
00005050665650
00002540003550
ENDCHAR
STARTCHAR questiondown
ENCODING 191
SWIDTH 455 0
DWIDTH 7 0
BBX 7 13 0 -1
BITMAP
00003200
00043700
00052600
00005200
00065700
00072500
00535700
47104500
866A4000
60045650
46650060
00166560
00000200
ENDCHAR
STARTCHAR Agrave
ENCODING 192
SWIDTH 507 0
DWIDTH 8 0
BBX 9 16 0 0
BITMAP
0037100000
0072300000
0042600000
0007600000
0012000000
0084700000
0060780000
0430650000
0864524000
0604946000
0606606300
3848A66530
5116510060
6034566910
6055260600
6670066610
ENDCHAR
STARTCHAR Aacute
ENCODING 193
SWIDTH 507 0
DWIDTH 8 0
BBX 9 16 0 0
BITMAP
0000052000
0000336000
0001634000
0002750000
0012000000
0084700000
0060780000
0430650000
0864524000
0604946000
0606606300
3848A66530
5116510060
6034566910
6055260600
6670066610
ENDCHAR
STARTCHAR Acircumflex
ENCODING 194
SWIDTH 507 0
DWIDTH 8 0
BBX 9 16 0 0
BITMAP
0007930000
0051660000
0245615000
0165464000
0012000000
0084700000
0060780000
0430650000
0864524000
0604946000
0606606300
3848A66530
5116510060
6034566910
6055260600
6670066610
ENDCHAR
STARTCHAR Atilde
ENCODING 195
SWIDTH 507 0
DWIDTH 8 0
BBX 9 16 0 0
BITMAP
0066755400
0244762400
0619166000
06717A3000
0012000000
0084700000
0060780000
0430650000
0864524000
0604946000
0606606300
3848A66530
5116510060
6034566910
6055260600
6670066610
ENDCHAR
STARTCHAR Adieresis
ENCODING 196
SWIDTH 507 0
DWIDTH 8 0
BBX 9 15 0 0
BITMAP
0155263000
0605606000
0366455000
0012000000
0084700000
0060780000
0430650000
0864524000
0604946000
0606606300
3848A66530
5116510060
6034566910
6055260600
6670066610
ENDCHAR
STARTCHAR Aring
ENCODING 197
SWIDTH 507 0
DWIDTH 8 0
BBX 9 16 0 0
BITMAP
0006540000
0051751000
0255816000
0086475000
0067562000
0084700000
0060780000
0430650000
0864524000
0604946000
0606606300
3848A66530
5116510060
6034566910
6055260600
6670066610
ENDCHAR
STARTCHAR AE
ENCODING 198
SWIDTH 797 0
DWIDTH 13 0
BBX 14 12 -1 0
BITMAP
00000002301010
00000786399656
00003307065006
00007035096664
000672A6460000
00060391096810
00440733150330
00952786396810
03318051171000
07038582189564
43060060065006
05650056676672
ENDCHAR
STARTCHAR Ccedilla
ENCODING 199
SWIDTH 515 0
DWIDTH 8 0
BBX 9 16 0 -4
BITMAP
0141100000
0625786700
0600320420
0768656800
0A57000000
0606000000
1506000000
4756000000
4216001300
6038A65610
7243510330
1A66786600
0330550000
0035880000
0051660000
0025000000
ENDCHAR
STARTCHAR Egrave
ENCODING 200
SWIDTH 490 0
DWIDTH 8 0
BBX 8 16 0 0
BITMAP
00162000
00705000
00246000
00067000
02301001
27399656
15065006
14086664
57460000
33095710
24060140
47486710
42171000
33089564
51065006
46676663
ENDCHAR
STARTCHAR Eacute
ENCODING 201
SWIDTH 490 0
DWIDTH 8 0
BBX 8 16 0 0
BITMAP
00002400
00006240
00052600
00067100
02301001
27399656
15065006
14086664
57460000
33095710
24060140
47486710
42171000
33089564
51065006
46676663
ENDCHAR
STARTCHAR Ecircumflex
ENCODING 202
SWIDTH 490 0
DWIDTH 8 0
BBX 8 16 0 0
BITMAP
00079200
00616600
03456150
01654640
02301001
27399656
15065006
14086664
57460000
33095710
24060140
47486710
42171000
33089564
51065006
46676663
ENDCHAR
STARTCHAR Edieresis
ENCODING 203
SWIDTH 490 0
DWIDTH 8 0
BBX 8 15 0 0
BITMAP
02542630
06056060
04664550
02301001
27399656
15065006
14086664
57460000
33095710
24060140
47486710
42171000
33089564
51065006
46676663
ENDCHAR
STARTCHAR Igrave
ENCODING 204
SWIDTH 266 0
DWIDTH 4 0
BBX 4 16 0 0
BITMAP
3700
7330
5160
0760
0230
2637
1506
1506
5746
3306
2406
4746
3206
3306
5106
4665
ENDCHAR
STARTCHAR Iacute
ENCODING 205
SWIDTH 266 0
DWIDTH 4 0
BBX 5 16 0 0
BITMAP
000510
004260
016430
037500
023000
263700
150600
150600
574600
330600
240600
474600
320600
330600
510600
466500
ENDCHAR
STARTCHAR Icircumflex
ENCODING 206
SWIDTH 266 0
DWIDTH 4 0
BBX 5 16 0 0
BITMAP
068600
335610
638060
661750
023000
263700
150600
150600
574600
330600
240600
474600
320600
330600
510600
466500
ENDCHAR
STARTCHAR Idieresis
ENCODING 207
SWIDTH 266 0
DWIDTH 4 0
BBX 6 15 -1 0
BITMAP
155164
515606
277455
002300
026370
015060
015060
057460
033060
024060
047460
032060
033060
051060
046650
ENDCHAR
STARTCHAR Eth
ENCODING 208
SWIDTH 669 0
DWIDTH 11 0
BBX 12 13 -1 -1
BITMAP
000003630000
000089061000
000068006300
000061812910
000095774072
175576617107
330006601958
0655AA746137
000060776170
000060701700
000060617000
000176970000
000000320000
ENDCHAR
STARTCHAR Ntilde
ENCODING 209
SWIDTH 598 0
DWIDTH 10 0
BBX 10 16 0 0
BITMAP
0005675540
0024476240
0061916600
005717A300
0130000310
274A408381
1506606060
1506615060
574846A570
3305066060
240B028060
4748557570
4316804360
3306330760
5106050580
4665068970
ENDCHAR
STARTCHAR Ograve
ENCODING 210
SWIDTH 612 0
DWIDTH 10 0
BBX 10 17 0 -1
BITMAP
0001630000
0007050000
0002460000
0000671000
0141100000
0625776960
0600320480
0768657860
0A5700A670
0606006060
1506006060
4756007553
4216007352
60388863A3
7243050076
1A66666981
0330000000
ENDCHAR
STARTCHAR Oacute
ENCODING 211
SWIDTH 612 0
DWIDTH 10 0
BBX 10 17 0 -1
BITMAP
0000006100
0000051600
0000245200
0000473000
0141100000
0625776960
0600320480
0768657860
0A5700A670
0606006060
1506006060
4756007553
4216007352
60388863A3
7243050076
1A66666981
0330000000
ENDCHAR
STARTCHAR Ocircumflex
ENCODING 212
SWIDTH 612 0
DWIDTH 10 0
BBX 10 17 0 -1
BITMAP
0000793000
0005166000
0024561500
0016546400
0141100000
0625776960
0600320480
0768657860
0A5700A670
0606006060
1506006060
4756007553
4216007352
60388863A3
7243050076
1A66666981
0330000000
ENDCHAR
STARTCHAR Otilde
ENCODING 213
SWIDTH 612 0
DWIDTH 10 0
BBX 10 17 0 -1
BITMAP
0004693650
0016278160
0060835600
0047179500
0141100000
0625776960
0600320480
0768657860
0A5700A670
0606006060
1506006060
4756007553
4216007352
60388863A3
7243050076
1A66666981
0330000000
ENDCHAR
STARTCHAR Odieresis
ENCODING 214
SWIDTH 612 0
DWIDTH 10 0
BBX 10 16 0 -1
BITMAP
0035336200
0060560600
0065566300
0141100000
0625776960
0600320480
0768657860
0A5700A670
0606006060
1506006060
4756007553
4216007352
60388863A3
7243050076
1A66666981
0330000000
ENDCHAR
STARTCHAR multiply
ENCODING 215
SWIDTH 421 0
DWIDTH 7 0
BBX 7 7 0 2
BITMAP
00100000
27737700
60083240
26139600
35740720
61481520
06417400
ENDCHAR
STARTCHAR Oslash
ENCODING 216
SWIDTH 612 0
DWIDTH 10 0
BBX 10 13 0 -1
BITMAP
0141100000
0625788760
0600325060
0768681280
0A57492870
0606505360
1509318060
475A057553
4252557452
61507863A3
7603250076
1707666981
0363000000
ENDCHAR
STARTCHAR Ugrave
ENCODING 217
SWIDTH 583 0
DWIDTH 9 0
BBX 9 17 0 -1
BITMAP
0004500000
0025500000
0006150000
0002740000
0020002200
0847154450
0606041150
0606033150
2956057460
1506042060
2406015060
5646028560
5115018560
6038963570
7134600580
1A7666BA70
0340000000
ENDCHAR
STARTCHAR Uacute
ENCODING 218
SWIDTH 583 0
DWIDTH 9 0
BBX 9 17 0 -1
BITMAP
0000042000
0000246000
0000634000
0001760000
0020002200
0847154450
0606041150
0606033150
2956057460
1506042060
2406015060
5646028560
5115018560
6038963570
7134600580
1A7666BA70
0340000000
ENDCHAR
STARTCHAR Ucircumflex
ENCODING 219
SWIDTH 583 0
DWIDTH 9 0
BBX 9 17 0 -1
BITMAP
0005680000
0015372000
0061916000
0057077000
0020002200
0847154450
0606041150
0606033150
2956057460
1506042060
2406015060
5646028560
5115018560
6038963570
7134600580
1A7666BA70
0340000000
ENDCHAR
STARTCHAR Udieresis
ENCODING 220
SWIDTH 583 0
DWIDTH 9 0
BBX 9 16 0 -1
BITMAP
0045255100
0151553400
0076277100
0020002200
0847154450
0606041150
0606033150
2956057460
1506042060
2406015060
5646028560
5115018560
6038963570
7134600580
1A7666BA70
0340000000
ENDCHAR
STARTCHAR Yacute
ENCODING 221
SWIDTH 484 0
DWIDTH 8 0
BBX 10 15 -1 0
BITMAP
0000034000
0000063300
0000626000
0000670000
0672006650
4307006061
1702652160
0165596520
0072330700
0006604200
0003846000
0006026000
0026061000
0061050000
0016640000
ENDCHAR
STARTCHAR Thorn
ENCODING 222
SWIDTH 520 0
DWIDTH 8 0
BBX 9 12 0 -1
BITMAP
2766000000
1779200000
1B004A3000
4A62153640
3209751150
2406176920
3629902710
4436246000
3306550000
510A200000
5446000000
0220000000
ENDCHAR
STARTCHAR germandbls
ENCODING 223
SWIDTH 884 0
DWIDTH 14 0
BBX 15 13 0 -1
BITMAP
0002143000214300
3889426288852600
7563137656323700
7028532611953200
1606100060520000
0672600067260000
0160520017043000
0043570003457000
000A142000913300
566A407566A50610
6006617600561700
7456771635677200
1200000120000000
ENDCHAR
STARTCHAR agrave
ENCODING 224
SWIDTH 507 0
DWIDTH 8 0
BBX 9 16 0 0
BITMAP
0037100000
0072300000
0042600000
0007600000
0012000000
0084700000
0060780000
0430650000
0864524000
0604946000
0606606300
3848A66530
5116510060
6034566910
6055260600
6670066610
ENDCHAR
STARTCHAR aacute
ENCODING 225
SWIDTH 507 0
DWIDTH 8 0
BBX 9 16 0 0
BITMAP
0000052000
0000336000
0001634000
0002750000
0012000000
0084700000
0060780000
0430650000
0864524000
0604946000
0606606300
3848A66530
5116510060
6034566910
6055260600
6670066610
ENDCHAR
STARTCHAR acircumflex
ENCODING 226
SWIDTH 507 0
DWIDTH 8 0
BBX 9 16 0 0
BITMAP
0007930000
0051660000
0245615000
0165464000
0012000000
0084700000
0060780000
0430650000
0864524000
0604946000
0606606300
3848A66530
5116510060
6034566910
6055260600
6670066610
ENDCHAR
STARTCHAR atilde
ENCODING 227
SWIDTH 507 0
DWIDTH 8 0
BBX 9 16 0 0
BITMAP
0066755400
0244762400
0619166000
06717A3000
0012000000
0084700000
0060780000
0430650000
0864524000
0604946000
0606606300
3848A66530
5116510060
6034566910
6055260600
6670066610
ENDCHAR
STARTCHAR adieresis
ENCODING 228
SWIDTH 507 0
DWIDTH 8 0
BBX 9 15 0 0
BITMAP
0155263000
0605606000
0366455000
0012000000
0084700000
0060780000
0430650000
0864524000
0604946000
0606606300
3848A66530
5116510060
6034566910
6055260600
6670066610
ENDCHAR
STARTCHAR aring
ENCODING 229
SWIDTH 507 0
DWIDTH 8 0
BBX 9 16 0 0
BITMAP
0006540000
0051751000
0255816000
0086475000
0067562000
0084700000
0060780000
0430650000
0864524000
0604946000
0606606300
3848A66530
5116510060
6034566910
6055260600
6670066610
ENDCHAR
STARTCHAR ae
ENCODING 230
SWIDTH 797 0
DWIDTH 13 0
BBX 14 12 -1 0
BITMAP
00000002301010
00000786399656
00003307065006
00007035096664
000672A6460000
00060391096810
00440733150330
00952786396810
03318051171000
07038582189564
43060060065006
05650056676672
ENDCHAR
STARTCHAR ccedilla
ENCODING 231
SWIDTH 515 0
DWIDTH 8 0
BBX 9 16 0 -4
BITMAP
0141100000
0625786700
0600320420
0768656800
0A57000000
0606000000
1506000000
4756000000
4216001300
6038A65610
7243510330
1A66786600
0330550000
0035880000
0051660000
0025000000
ENDCHAR
STARTCHAR egrave
ENCODING 232
SWIDTH 490 0
DWIDTH 8 0
BBX 8 16 0 0
BITMAP
00162000
00705000
00246000
00067000
02301001
27399656
15065006
14086664
57460000
33095710
24060140
47486710
42171000
33089564
51065006
46676663
ENDCHAR
STARTCHAR eacute
ENCODING 233
SWIDTH 490 0
DWIDTH 8 0
BBX 8 16 0 0
BITMAP
00002400
00006240
00052600
00067100
02301001
27399656
15065006
14086664
57460000
33095710
24060140
47486710
42171000
33089564
51065006
46676663
ENDCHAR
STARTCHAR ecircumflex
ENCODING 234
SWIDTH 490 0
DWIDTH 8 0
BBX 8 16 0 0
BITMAP
00079200
00616600
03456150
01654640
02301001
27399656
15065006
14086664
57460000
33095710
24060140
47486710
42171000
33089564
51065006
46676663
ENDCHAR
STARTCHAR edieresis
ENCODING 235
SWIDTH 490 0
DWIDTH 8 0
BBX 8 15 0 0
BITMAP
02542630
06056060
04664550
02301001
27399656
15065006
14086664
57460000
33095710
24060140
47486710
42171000
33089564
51065006
46676663
ENDCHAR
STARTCHAR igrave
ENCODING 236
SWIDTH 266 0
DWIDTH 4 0
BBX 4 16 0 0
BITMAP
3700
7330
5160
0760
0230
2637
1506
1506
5746
3306
2406
4746
3206
3306
5106
4665
ENDCHAR
STARTCHAR iacute
ENCODING 237
SWIDTH 266 0
DWIDTH 4 0
BBX 5 16 0 0
BITMAP
000510
004260
016430
037500
023000
263700
150600
150600
574600
330600
240600
474600
320600
330600
510600
466500
ENDCHAR
STARTCHAR icircumflex
ENCODING 238
SWIDTH 266 0
DWIDTH 4 0
BBX 5 16 0 0
BITMAP
068600
335610
638060
661750
023000
263700
150600
150600
574600
330600
240600
474600
320600
330600
510600
466500
ENDCHAR
STARTCHAR idieresis
ENCODING 239
SWIDTH 266 0
DWIDTH 4 0
BBX 6 15 -1 0
BITMAP
155164
515606
277455
002300
026370
015060
015060
057460
033060
024060
047460
032060
033060
051060
046650
ENDCHAR
STARTCHAR eth
ENCODING 240
SWIDTH 669 0
DWIDTH 11 0
BBX 12 13 -1 -1
BITMAP
000003630000
000089061000
000068006300
000061812910
000095774072
175576617107
330006601958
0655AA746137
000060776170
000060701700
000060617000
000176970000
000000320000
ENDCHAR
STARTCHAR ntilde
ENCODING 241
SWIDTH 598 0
DWIDTH 10 0
BBX 10 16 0 0
BITMAP
0005675540
0024476240
0061916600
005717A300
0130000310
274A408381
1506606060
1506615060
574846A570
3305066060
240B028060
4748557570
4316804360
3306330760
5106050580
4665068970
ENDCHAR
STARTCHAR ograve
ENCODING 242
SWIDTH 612 0
DWIDTH 10 0
BBX 10 17 0 -1
BITMAP
0001630000
0007050000
0002460000
0000671000
0141100000
0625776960
0600320480
0768657860
0A5700A670
0606006060
1506006060
4756007553
4216007352
60388863A3
7243050076
1A66666981
0330000000
ENDCHAR
STARTCHAR oacute
ENCODING 243
SWIDTH 612 0
DWIDTH 10 0
BBX 10 17 0 -1
BITMAP
0000006100
0000051600
0000245200
0000473000
0141100000
0625776960
0600320480
0768657860
0A5700A670
0606006060
1506006060
4756007553
4216007352
60388863A3
7243050076
1A66666981
0330000000
ENDCHAR
STARTCHAR ocircumflex
ENCODING 244
SWIDTH 612 0
DWIDTH 10 0
BBX 10 17 0 -1
BITMAP
0000793000
0005166000
0024561500
0016546400
0141100000
0625776960
0600320480
0768657860
0A5700A670
0606006060
1506006060
4756007553
4216007352
60388863A3
7243050076
1A66666981
0330000000
ENDCHAR
STARTCHAR otilde
ENCODING 245
SWIDTH 612 0
DWIDTH 10 0
BBX 10 17 0 -1
BITMAP
0004693650
0016278160
0060835600
0047179500
0141100000
0625776960
0600320480
0768657860
0A5700A670
0606006060
1506006060
4756007553
4216007352
60388863A3
7243050076
1A66666981
0330000000
ENDCHAR
STARTCHAR odieresis
ENCODING 246
SWIDTH 612 0
DWIDTH 10 0
BBX 10 16 0 -1
BITMAP
0035336200
0060560600
0065566300
0141100000
0625776960
0600320480
0768657860
0A5700A670
0606006060
1506006060
4756007553
4216007352
60388863A3
7243050076
1A66666981
0330000000
ENDCHAR
STARTCHAR divide
ENCODING 247
SWIDTH 457 0
DWIDTH 7 0
BBX 7 10 0 0
BITMAP
00456000
00505000
00355000
36576650
60033060
64666670
02163010
00606000
00547000
00020000
ENDCHAR
STARTCHAR oslash
ENCODING 248
SWIDTH 612 0
DWIDTH 10 0
BBX 10 13 0 -1
BITMAP
0141100000
0625788760
0600325060
0768681280
0A57492870
0606505360
1509318060
475A057553
4252557452
61507863A3
7603250076
1707666981
0363000000
ENDCHAR
STARTCHAR ugrave
ENCODING 249
SWIDTH 583 0
DWIDTH 9 0
BBX 9 17 0 -1
BITMAP
0004500000
0025500000
0006150000
0002740000
0020002200
0847154450
0606041150
0606033150
2956057460
1506042060
2406015060
5646028560
5115018560
6038963570
7134600580
1A7666BA70
0340000000
ENDCHAR
STARTCHAR uacute
ENCODING 250
SWIDTH 583 0
DWIDTH 9 0
BBX 9 17 0 -1
BITMAP
0000042000
0000246000
0000634000
0001760000
0020002200
0847154450
0606041150
0606033150
2956057460
1506042060
2406015060
5646028560
5115018560
6038963570
7134600580
1A7666BA70
0340000000
ENDCHAR
STARTCHAR ucircumflex
ENCODING 251
SWIDTH 583 0
DWIDTH 9 0
BBX 9 17 0 -1
BITMAP
0005680000
0015372000
0061916000
0057077000
0020002200
0847154450
0606041150
0606033150
2956057460
1506042060
2406015060
5646028560
5115018560
6038963570
7134600580
1A7666BA70
0340000000
ENDCHAR
STARTCHAR udieresis
ENCODING 252
SWIDTH 583 0
DWIDTH 9 0
BBX 9 16 0 -1
BITMAP
0045255100
0151553400
0076277100
0020002200
0847154450
0606041150
0606033150
2956057460
1506042060
2406015060
5646028560
5115018560
6038963570
7134600580
1A7666BA70
0340000000
ENDCHAR
STARTCHAR yacute
ENCODING 253
SWIDTH 484 0
DWIDTH 8 0
BBX 10 15 -1 0
BITMAP
0000034000
0000063300
0000626000
0000670000
0672006650
4307006061
1702652160
0165596520
0072330700
0006604200
0003846000
0006026000
0026061000
0061050000
0016640000
ENDCHAR
STARTCHAR thorn
ENCODING 254
SWIDTH 520 0
DWIDTH 8 0
BBX 9 12 0 -1
BITMAP
2766000000
1779200000
1B004A3000
4A62153640
3209751150
2406176920
3629902710
4436246000
3306550000
510A200000
5446000000
0220000000
ENDCHAR
STARTCHAR ydieresis
ENCODING 255
SWIDTH 484 0
DWIDTH 8 0
BBX 10 14 -1 0
BITMAP
0035336200
0060560600
0055565400
0672006650
4307006061
1702652160
0165596520
0072330700
0006604200
0003846000
0006026000
0026061000
0061050000
0016640000
ENDCHAR
STARTCHAR Amacron
ENCODING 256
SWIDTH 507 0
DWIDTH 8 0
BBX 9 15 0 0
BITMAP
0010000000
0075571000
0075671000
0012000000
0084700000
0060780000
0430650000
0864524000
0604946000
0606606300
3848A66530
5116510060
6034566910
6055260600
6670066610
ENDCHAR
STARTCHAR amacron
ENCODING 257
SWIDTH 507 0
DWIDTH 8 0
BBX 9 15 0 0
BITMAP
0010000000
0075571000
0075671000
0012000000
0084700000
0060780000
0430650000
0864524000
0604946000
0606606300
3848A66530
5116510060
6034566910
6055260600
6670066610
ENDCHAR
STARTCHAR Abreve
ENCODING 258
SWIDTH 507 0
DWIDTH 8 0
BBX 9 16 0 0
BITMAP
0454363000
0505506000
0237592000
0178580000
0012000000
0084700000
0060780000
0430650000
0864524000
0604946000
0606606300
3848A66530
5116510060
6034566910
6055260600
6670066610
ENDCHAR
STARTCHAR abreve
ENCODING 259
SWIDTH 507 0
DWIDTH 8 0
BBX 9 16 0 0
BITMAP
0454363000
0505506000
0237592000
0178580000
0012000000
0084700000
0060780000
0430650000
0864524000
0604946000
0606606300
3848A66530
5116510060
6034566910
6055260600
6670066610
ENDCHAR
STARTCHAR Aogonek
ENCODING 260
SWIDTH 507 0
DWIDTH 8 0
BBX 9 16 0 -4
BITMAP
0012000000
0084700000
0060780000
0430650000
0864524000
0604946000
0606606300
3848A66530
5116510060
6034566910
6055260600
6670076810
0000063300
0000086630
0000016250
0000000400
ENDCHAR
STARTCHAR aogonek
ENCODING 261
SWIDTH 507 0
DWIDTH 8 0
BBX 9 16 0 -4
BITMAP
0012000000
0084700000
0060780000
0430650000
0864524000
0604946000
0606606300
3848A66530
5116510060
6034566910
6055260600
6670076810
0000063300
0000086630
0000016250
0000000400
ENDCHAR
STARTCHAR Cacute
ENCODING 262
SWIDTH 515 0
DWIDTH 8 0
BBX 9 17 0 -1
BITMAP
0000033000
0000065200
0000626000
0000770000
0141100000
0625786700
0600320420
0768656800
0A57000000
0606000000
1506000000
4756000000
4216001300
6038A65610
7243510330
1A66666600
0330000000
ENDCHAR
STARTCHAR cacute
ENCODING 263
SWIDTH 515 0
DWIDTH 8 0
BBX 9 17 0 -1
BITMAP
0000033000
0000065200
0000626000
0000770000
0141100000
0625786700
0600320420
0768656800
0A57000000
0606000000
1506000000
4756000000
4216001300
6038A65610
7243510330
1A66666600
0330000000
ENDCHAR
STARTCHAR Ccircumflex
ENCODING 264
SWIDTH 515 0
DWIDTH 8 0
BBX 9 17 0 -1
BITMAP
00017A1000
0006165000
0043552400
0026456300
0141100000
0625786700
0600320420
0768656800
0A57000000
0606000000
1506000000
4756000000
4216001300
6038A65610
7243510330
1A66666600
0330000000
ENDCHAR
STARTCHAR ccircumflex
ENCODING 265
SWIDTH 515 0
DWIDTH 8 0
BBX 9 17 0 -1
BITMAP
00017A1000
0006165000
0043552400
0026456300
0141100000
0625786700
0600320420
0768656800
0A57000000
0606000000
1506000000
4756000000
4216001300
6038A65610
7243510330
1A66666600
0330000000
ENDCHAR
STARTCHAR Cdotaccent
ENCODING 266
SWIDTH 515 0
DWIDTH 8 0
BBX 9 16 0 -1
BITMAP
0001550000
0004241000
0001770000
0141100000
0625786700
0600320420
0768656800
0A57000000
0606000000
1506000000
4756000000
4216001300
6038A65610
7243510330
1A66666600
0330000000
ENDCHAR
STARTCHAR cdotaccent
ENCODING 267
SWIDTH 515 0
DWIDTH 8 0
BBX 9 16 0 -1
BITMAP
0001550000
0004241000
0001770000
0141100000
0625786700
0600320420
0768656800
0A57000000
0606000000
1506000000
4756000000
4216001300
6038A65610
7243510330
1A66666600
0330000000
ENDCHAR
STARTCHAR Ccaron
ENCODING 268
SWIDTH 515 0
DWIDTH 8 0
BBX 9 18 0 -1
BITMAP
0001001000
0055565400
0024554300
0006065000
00026A0000
0141100000
0625786700
0600320420
0768656800
0A57000000
0606000000
1506000000
4756000000
4216001300
6038A65610
7243510330
1A66666600
0330000000
ENDCHAR
STARTCHAR ccaron
ENCODING 269
SWIDTH 515 0
DWIDTH 8 0
BBX 9 18 0 -1
BITMAP
0001001000
0055565400
0024554300
0006065000
00026A0000
0141100000
0625786700
0600320420
0768656800
0A57000000
0606000000
1506000000
4756000000
4216001300
6038A65610
7243510330
1A66666600
0330000000
ENDCHAR
STARTCHAR Dcaron
ENCODING 270
SWIDTH 520 0
DWIDTH 8 0
BBX 9 18 0 -1
BITMAP
0010010000
0366555000
0163634000
0051660000
0017A20000
0256000000
2951600000
1940271000
1436067000
5749622600
3306350160
2406066740
4746642440
421B544300
3306045000
5106440000
4668600000
0014000000
ENDCHAR
STARTCHAR dcaron
ENCODING 271
SWIDTH 520 0
DWIDTH 8 0
BBX 9 18 0 -1
BITMAP
0010010000
0366555000
0163634000
0051660000
0017A20000
0256000000
2951600000
1940271000
1436067000
5749622600
3306350160
2406066740
4746642440
421B544300
3306045000
5106440000
4668600000
0014000000
ENDCHAR
STARTCHAR Dcroat
ENCODING 272
SWIDTH 669 0
DWIDTH 11 0
BBX 12 13 -1 -1
BITMAP
000003630000
000089061000
000068006300
000061812910
000095774072
175576617107
330006601958
0655AA746137
000060776170
000060701700
000060617000
000176970000
000000320000
ENDCHAR
STARTCHAR dcroat
ENCODING 273
SWIDTH 669 0
DWIDTH 11 0
BBX 12 13 -1 -1
BITMAP
000003630000
000089061000
000068006300
000061812910
000095774072
175576617107
330006601958
0655AA746137
000060776170
000060701700
000060617000
000176970000
000000320000
ENDCHAR
STARTCHAR Emacron
ENCODING 274
SWIDTH 490 0
DWIDTH 8 0
BBX 8 15 0 0
BITMAP
00100000
00755700
00756700
02301001
27399656
15065006
14086664
57460000
33095710
24060140
47486710
42171000
33089564
51065006
46676663
ENDCHAR
STARTCHAR emacron
ENCODING 275
SWIDTH 490 0
DWIDTH 8 0
BBX 8 15 0 0
BITMAP
00100000
00755700
00756700
02301001
27399656
15065006
14086664
57460000
33095710
24060140
47486710
42171000
33089564
51065006
46676663
ENDCHAR
STARTCHAR Ebreve
ENCODING 276
SWIDTH 490 0
DWIDTH 8 0
BBX 8 16 0 0
BITMAP
02650650
02353360
00565750
00695810
02301001
27399656
15065006
14086664
57460000
33095710
24060140
47486710
42171000
33089564
51065006
46676663
ENDCHAR
STARTCHAR ebreve
ENCODING 277
SWIDTH 490 0
DWIDTH 8 0
BBX 8 16 0 0
BITMAP
02650650
02353360
00565750
00695810
02301001
27399656
15065006
14086664
57460000
33095710
24060140
47486710
42171000
33089564
51065006
46676663
ENDCHAR
STARTCHAR Edotaccent
ENCODING 278
SWIDTH 490 0
DWIDTH 8 0
BBX 8 15 0 0
BITMAP
00055100
00334100
00188000
02301001
27399656
15065006
14086664
57460000
33095710
24060140
47486710
42171000
33089564
51065006
46676663
ENDCHAR
STARTCHAR edotaccent
ENCODING 279
SWIDTH 490 0
DWIDTH 8 0
BBX 8 15 0 0
BITMAP
00055100
00334100
00188000
02301001
27399656
15065006
14086664
57460000
33095710
24060140
47486710
42171000
33089564
51065006
46676663
ENDCHAR
STARTCHAR Eogonek
ENCODING 280
SWIDTH 490 0
DWIDTH 8 0
BBX 8 16 0 -4
BITMAP
02301001
27399656
15065006
14086664
57460000
33095710
24060140
47486710
42171000
33089564
51065006
46678683
00006240
00008764
00000635
00000040
ENDCHAR
STARTCHAR eogonek
ENCODING 281
SWIDTH 490 0
DWIDTH 8 0
BBX 8 16 0 -4
BITMAP
02301001
27399656
15065006
14086664
57460000
33095710
24060140
47486710
42171000
33089564
51065006
46678683
00006240
00008764
00000635
00000040
ENDCHAR
STARTCHAR Ecaron
ENCODING 282
SWIDTH 490 0
DWIDTH 8 0
BBX 8 16 0 0
BITMAP
00100100
01763660
00628160
00335600
0236A301
27399656
15065006
14086664
57460000
33095710
24060140
47486710
42171000
33089564
51065006
46676663
ENDCHAR
STARTCHAR ecaron
ENCODING 283
SWIDTH 490 0
DWIDTH 8 0
BBX 8 16 0 0
BITMAP
00100100
01763660
00628160
00335600
0236A301
27399656
15065006
14086664
57460000
33095710
24060140
47486710
42171000
33089564
51065006
46676663
ENDCHAR
STARTCHAR Gcircumflex
ENCODING 284
SWIDTH 557 0
DWIDTH 9 0
BBX 9 17 0 -1
BITMAP
00036A0000
0006164000
0051744200
0036366200
0141100000
0625786700
0600320420
0768656800
0A57000000
0606016620
1506051150
4756023150
4216047460
6038A73060
7243524060
1A66677650
0330000000
ENDCHAR
STARTCHAR gcircumflex
ENCODING 285
SWIDTH 557 0
DWIDTH 9 0
BBX 9 17 0 -1
BITMAP
00036A0000
0006164000
0051744200
0036366200
0141100000
0625786700
0600320420
0768656800
0A57000000
0606016620
1506051150
4756023150
4216047460
6038A73060
7243524060
1A66677650
0330000000
ENDCHAR
STARTCHAR Gbreve
ENCODING 286
SWIDTH 557 0
DWIDTH 9 0
BBX 9 17 0 -1
BITMAP
0056146200
0062363300
005096A000
0038766000
0141100000
0625786700
0600320420
0768656800
0A57000000
0606016620
1506051150
4756023150
4216047460
6038A73060
7243524060
1A66677650
0330000000
ENDCHAR
STARTCHAR gbreve
ENCODING 287
SWIDTH 557 0
DWIDTH 9 0
BBX 9 17 0 -1
BITMAP
0056146200
0062363300
005096A000
0038766000
0141100000
0625786700
0600320420
0768656800
0A57000000
0606016620
1506051150
4756023150
4216047460
6038A73060
7243524060
1A66677650
0330000000
ENDCHAR
STARTCHAR Gdotaccent
ENCODING 288
SWIDTH 557 0
DWIDTH 9 0
BBX 9 16 0 -1
BITMAP
0000551000
0003341000
0000870000
0141100000
0625786700
0600320420
0768656800
0A57000000
0606016620
1506051150
4756023150
4216047460
6038A73060
7243524060
1A66677650
0330000000
ENDCHAR
STARTCHAR gdotaccent
ENCODING 289
SWIDTH 557 0
DWIDTH 9 0
BBX 9 16 0 -1
BITMAP
0000551000
0003341000
0000870000
0141100000
0625786700
0600320420
0768656800
0A57000000
0606016620
1506051150
4756023150
4216047460
6038A73060
7243524060
1A66677650
0330000000
ENDCHAR
STARTCHAR Gcommaaccent
ENCODING 290
SWIDTH 557 0
DWIDTH 9 0
BBX 9 16 0 -4
BITMAP
0141100000
0625786700
0600320420
0768656800
0A57000000
0606016620
1506051150
4756023150
4216047460
6038A73060
7243524060
1A66677650
0330500000
0005160000
0024520000
0046300000
ENDCHAR
STARTCHAR gcommaaccent
ENCODING 291
SWIDTH 557 0
DWIDTH 9 0
BBX 9 16 0 -4
BITMAP
0141100000
0625786700
0600320420
0768656800
0A57000000
0606016620
1506051150
4756023150
4216047460
6038A73060
7243524060
1A66677650
0330500000
0005160000
0024520000
0046300000
ENDCHAR
STARTCHAR Hcircumflex
ENCODING 292
SWIDTH 611 0
DWIDTH 10 0
BBX 10 16 0 0
BITMAP
00027A0000
0006165000
0051654300
0036356200
0230002410
2637026280
1506006060
1506006060
5746029560
3306005060
2406009666
4749657006
3206504575
330A767160
5106033060
4665036650
ENDCHAR
STARTCHAR hcircumflex
ENCODING 293
SWIDTH 611 0
DWIDTH 10 0
BBX 10 16 0 0
BITMAP
00027A0000
0006165000
0051654300
0036356200
0230002410
2637026280
1506006060
1506006060
5746029560
3306005060
2406009666
4749657006
3206504575
330A767160
5106033060
4665036650
ENDCHAR
STARTCHAR Hbar
ENCODING 294
SWIDTH 706 0
DWIDTH 11 0
BBX 12 12 0 0
BITMAP
002300024100
036370352800
164082281610
5340A4475562
557461141033
182094595A60
033060096650
047496570060
042165045750
042197770600
061060420600
046640366500
ENDCHAR
STARTCHAR hbar
ENCODING 295
SWIDTH 706 0
DWIDTH 11 0
BBX 12 12 0 0
BITMAP
002300024100
036370352800
164082281610
5340A4475562
557461141033
182094595A60
033060096650
047496570060
042165045750
042197770600
061060420600
046640366500
ENDCHAR
STARTCHAR Itilde
ENCODING 296
SWIDTH 266 0
DWIDTH 4 0
BBX 7 16 -1 0
BITMAP
05693650
15378150
61926600
57179400
00230000
02637000
01506000
01506000
05746000
03306000
02406000
04746000
03206000
03306000
05106000
04665000
ENDCHAR
STARTCHAR itilde
ENCODING 297
SWIDTH 266 0
DWIDTH 4 0
BBX 7 16 -1 0
BITMAP
05693650
15378150
61926600
57179400
00230000
02637000
01506000
01506000
05746000
03306000
02406000
04746000
03206000
03306000
05106000
04665000
ENDCHAR
STARTCHAR Imacron
ENCODING 298
SWIDTH 266 0
DWIDTH 4 0
BBX 5 14 0 0
BITMAP
655630
656620
023000
263700
150600
150600
574600
330600
240600
474600
320600
330600
510600
466500
ENDCHAR
STARTCHAR imacron
ENCODING 299
SWIDTH 266 0
DWIDTH 4 0
BBX 5 14 0 0
BITMAP
655630
656620
023000
263700
150600
150600
574600
330600
240600
474600
320600
330600
510600
466500
ENDCHAR
STARTCHAR Ibreve
ENCODING 300
SWIDTH 266 0
DWIDTH 4 0
BBX 6 16 -1 0
BITMAP
265075
245246
056686
05A582
002300
026370
015060
015060
057460
033060
024060
047460
032060
033060
051060
046650
ENDCHAR
STARTCHAR ibreve
ENCODING 301
SWIDTH 266 0
DWIDTH 4 0
BBX 6 16 -1 0
BITMAP
265075
245246
056686
05A582
002300
026370
015060
015060
057460
033060
024060
047460
032060
033060
051060
046650
ENDCHAR
STARTCHAR Iogonek
ENCODING 302
SWIDTH 266 0
DWIDTH 4 0
BBX 4 16 0 -4
BITMAP
0230
2637
1506
1506
5746
3306
2406
4746
3206
3306
5106
4765
5170
7571
2817
0163
ENDCHAR
STARTCHAR iogonek
ENCODING 303
SWIDTH 266 0
DWIDTH 4 0
BBX 4 16 0 -4
BITMAP
0230
2637
1506
1506
5746
3306
2406
4746
3206
3306
5106
4765
5170
7571
2817
0163
ENDCHAR
STARTCHAR Idotaccent
ENCODING 304
SWIDTH 266 0
DWIDTH 4 0
BBX 4 15 0 0
BITMAP
0451
1514
0772
0230
2637
1506
1506
5746
3306
2406
4746
3206
3306
5106
4665
ENDCHAR
STARTCHAR dotlessi
ENCODING 305
SWIDTH 266 0
DWIDTH 4 0
BBX 4 12 0 0
BITMAP
0230
2637
1506
1506
5746
3306
2406
4746
3206
3306
5106
4665
ENDCHAR
STARTCHAR IJ
ENCODING 306
SWIDTH 750 0
DWIDTH 12 0
BBX 12 13 0 -1
BITMAP
023000000220
263700005446
150600004215
150600004214
574600007636
330600006025
240636505133
474660527535
320663088025
33060671B133
510601701724
466500161A63
000000046100
ENDCHAR
STARTCHAR ij
ENCODING 307
SWIDTH 749 0
DWIDTH 12 0
BBX 12 13 0 -1
BITMAP
023000000220
263700005446
150600004215
150600004214
574600007636
330600006025
240636505133
474660527535
320663088025
33060671B133
510601701724
466500161A63
000000046100
ENDCHAR
STARTCHAR Jcircumflex
ENCODING 308
SWIDTH 484 0
DWIDTH 8 0
BBX 10 17 -1 -1
BITMAP
0000046900
0000162630
0000618351
0000471670
0000003100
0000073630
0000060510
0000060500
0000095620
0000060610
0572060600
2407185620
1712860610
00862A0600
0035026610
0004339710
0000641000
ENDCHAR
STARTCHAR jcircumflex
ENCODING 309
SWIDTH 482 0
DWIDTH 8 0
BBX 10 17 -1 -1
BITMAP
0000046900
0000162630
0000618351
0000471670
0000003100
0000073630
0000060510
0000060500
0000095620
0000060610
0572060600
2407185620
1712860610
00862A0600
0035026610
0004339710
0000641000
ENDCHAR
STARTCHAR Kcommaaccent
ENCODING 310
SWIDTH 541 0
DWIDTH 9 0
BBX 9 16 0 -4
BITMAP
0230000000
2737006720
1506044070
1406650350
5747663600
330A017000
2406075000
4749626000
421B964400
3307430700
5106060430
4665065710
0002401000
0006240000
0042610000
0067100000
ENDCHAR
STARTCHAR kcommaaccent
ENCODING 311
SWIDTH 541 0
DWIDTH 9 0
BBX 9 16 0 -4
BITMAP
0230000000
2737006720
1506044070
1406650350
5747663600
330A017000
2406075000
4749626000
421B964400
3307430700
5106060430
4665065710
0002401000
0006240000
0042610000
0067100000
ENDCHAR
STARTCHAR kgreenlandic
ENCODING 312
SWIDTH 541 0
DWIDTH 9 0
BBX 9 13 0 -1
BITMAP
0230000000
2737006720
1506044070
1406650350
5747663600
330A017000
2406075000
4749626000
421B964400
3307430700
5106060430
4665065710
0000001000
ENDCHAR
STARTCHAR Lacute
ENCODING 313
SWIDTH 467 0
DWIDTH 7 0
BBX 8 16 0 0
BITMAP
00034000
00064200
00626000
00770000
02300000
26370000
15060000
15060000
57460000
33060000
24060000
47460000
32060000
330A8556
51074006
46686666
ENDCHAR
STARTCHAR lacute
ENCODING 314
SWIDTH 467 0
DWIDTH 7 0
BBX 8 16 0 0
BITMAP
00034000
00064200
00626000
00770000
02300000
26370000
15060000
15060000
57460000
33060000
24060000
47460000
32060000
330A8556
51074006
46686666
ENDCHAR
STARTCHAR Lcommaaccent
ENCODING 315
SWIDTH 467 0
DWIDTH 7 0
BBX 8 16 0 -4
BITMAP
02300000
26370000
15060000
15060000
57460000
33060000
24060000
47460000
32060000
330A8556
51074006
46686666
00051000
00426000
01643000
03650000
ENDCHAR
STARTCHAR lcommaaccent
ENCODING 316
SWIDTH 467 0
DWIDTH 7 0
BBX 8 16 0 -4
BITMAP
02300000
26370000
15060000
15060000
57460000
33060000
24060000
47460000
32060000
330A8556
51074006
46686666
00051000
00426000
01643000
03650000
ENDCHAR
STARTCHAR Lcaron
ENCODING 317
SWIDTH 467 0
DWIDTH 7 0
BBX 8 13 0 0
BITMAP
00000110
02300661
26374261
15067510
15061200
57460000
33060000
24060000
47460000
32060000
330A8556
51074006
46686666
ENDCHAR
STARTCHAR lcaron
ENCODING 318
SWIDTH 467 0
DWIDTH 7 0
BBX 8 13 0 0
BITMAP
00000110
02300661
26374261
15067510
15061200
57460000
33060000
24060000
47460000
32060000
330A8556
51074006
46686666
ENDCHAR
STARTCHAR Ldot
ENCODING 319
SWIDTH 611 0
DWIDTH 10 0
BBX 10 12 0 0
BITMAP
0230000000
2637000000
1506000000
1506000000
5746000110
3306001653
2406001533
4746000450
3206000000
330A855600
5107400600
4668666600
ENDCHAR
STARTCHAR ldotaccent
ENCODING 320
SWIDTH 611 0
DWIDTH 10 0
BBX 10 12 0 0
BITMAP
0230000000
2637000000
1506000000
1506000000
5746000110
3306001653
2406001533
4746000450
3206000000
330A855600
5107400600
4668666600
ENDCHAR
STARTCHAR Lslash
ENCODING 321
SWIDTH 505 0
DWIDTH 8 0
BBX 10 12 -1 0
BITMAP
0003200000
0063540000
0050420000
0050410000
0085561000
0680537000
3360527000
1795562000
0170520010
0060696681
0060561032
0065776570
ENDCHAR
STARTCHAR lslash
ENCODING 322
SWIDTH 505 0
DWIDTH 8 0
BBX 10 12 -1 0
BITMAP
0003200000
0063540000
0050420000
0050410000
0085561000
0680537000
3360527000
1795562000
0170520010
0060696681
0060561032
0065776570
ENDCHAR
STARTCHAR Nacute
ENCODING 323
SWIDTH 598 0
DWIDTH 10 0
BBX 10 15 0 0
BITMAP
0000024000
0000063400
0000526000
0130671310
274A408381
1506606060
1506615060
574846A570
3305066060
240B028060
4748557570
4316804360
3306330760
5106050580
4665068970
ENDCHAR
STARTCHAR nacute
ENCODING 324
SWIDTH 598 0
DWIDTH 10 0
BBX 10 15 0 0
BITMAP
0000024000
0000063400
0000526000
0130671310
274A408381
1506606060
1506615060
574846A570
3305066060
240B028060
4748557570
4316804360
3306330760
5106050580
4665068970
ENDCHAR
STARTCHAR Ncommaaccent
ENCODING 325
SWIDTH 598 0
DWIDTH 10 0
BBX 10 16 0 -4
BITMAP
0130000310
274A408381
1506606060
1506615060
574846A570
3305066060
240B028060
4748557570
4316804360
3306330760
5106050580
4665068970
0000510000
0003360000
0016440000
0027500000
ENDCHAR
STARTCHAR ncommaaccent
ENCODING 326
SWIDTH 598 0
DWIDTH 10 0
BBX 10 16 0 -4
BITMAP
0130000310
274A408381
1506606060
1506615060
574846A570
3305066060
240B028060
4748557570
4316804360
3306330760
5106050580
4665068970
0000510000
0003360000
0016440000
0027500000
ENDCHAR
STARTCHAR Ncaron
ENCODING 327
SWIDTH 598 0
DWIDTH 10 0
BBX 10 16 0 0
BITMAP
0001001000
0045565400
0024554300
0006065000
01326A1310
274A408381
1506606060
1506615060
574846A570
3305066060
240B028060
4748557570
4316804360
3306330760
5106050580
4665068970
ENDCHAR
STARTCHAR ncaron
ENCODING 328
SWIDTH 598 0
DWIDTH 10 0
BBX 10 16 0 0
BITMAP
0001001000
0045565400
0024554300
0006065000
01326A1310
274A408381
1506606060
1506615060
574846A570
3305066060
240B028060
4748557570
4316804360
3306330760
5106050580
4665068970
ENDCHAR
STARTCHAR napostrophe
ENCODING 329
SWIDTH 807 0
DWIDTH 13 0
BBX 13 12 0 0
BITMAP
01100310002200
06618387064550
42616066060330
76106062550320
1200A575686440
00006050480330
000060830A0420
00009577557440
00006167206430
00006060605710
00016060501A20
0001757037B720
ENDCHAR
STARTCHAR Eng
ENCODING 330
SWIDTH 595 0
DWIDTH 10 0
BBX 9 17 0 -5
BITMAP
0130000000
274A406770
1506606060
1406616060
5748465060
430607A670
240B027060
4748557060
4216804360
3306330A70
6106050580
4665067460
000046A760
0266540480
0500045810
0266650000
0010000000
ENDCHAR
STARTCHAR eng
ENCODING 331
SWIDTH 595 0
DWIDTH 10 0
BBX 9 17 0 -5
BITMAP
0130000000
274A406770
1506606060
1406616060
5748465060
430607A670
240B027060
4748557060
4216804360
3306330A70
6106050580
4665067460
000046A760
0266540480
0500045810
0266650000
0010000000
ENDCHAR
STARTCHAR Omacron
ENCODING 332
SWIDTH 612 0
DWIDTH 10 0
BBX 10 16 0 -1
BITMAP
0001000000
0007557100
0007567100
0141100000
0625776960
0600320480
0768657860
0A5700A670
0606006060
1506006060
4756007553
4216007352
60388863A3
7243050076
1A66666981
0330000000
ENDCHAR
STARTCHAR omacron
ENCODING 333
SWIDTH 612 0
DWIDTH 10 0
BBX 10 16 0 -1
BITMAP
0001000000
0007557100
0007567100
0141100000
0625776960
0600320480
0768657860
0A5700A670
0606006060
1506006060
4756007553
4216007352
60388863A3
7243050076
1A66666981
0330000000
ENDCHAR
STARTCHAR Obreve
ENCODING 334
SWIDTH 612 0
DWIDTH 10 0
BBX 10 17 0 -1
BITMAP
0046426400
0051550600
0023759300
0007958000
0141100000
0625776960
0600320480
0768657860
0A5700A670
0606006060
1506006060
4756007553
4216007352
60388863A3
7243050076
1A66666981
0330000000
ENDCHAR
STARTCHAR obreve
ENCODING 335
SWIDTH 612 0
DWIDTH 10 0
BBX 10 17 0 -1
BITMAP
0046426400
0051550600
0023759300
0007958000
0141100000
0625776960
0600320480
0768657860
0A5700A670
0606006060
1506006060
4756007553
4216007352
60388863A3
7243050076
1A66666981
0330000000
ENDCHAR
STARTCHAR Ohungarumlaut
ENCODING 336
SWIDTH 612 0
DWIDTH 10 0
BBX 10 17 0 -1
BITMAP
0000240520
0000627370
0005277340
0006727600
0141100000
0625776960
0600320480
0768657860
0A5700A670
0606006060
1506006060
4756007553
4216007352
60388863A3
7243050076
1A66666981
0330000000
ENDCHAR
STARTCHAR ohungarumlaut
ENCODING 337
SWIDTH 612 0
DWIDTH 10 0
BBX 10 17 0 -1
BITMAP
0000240520
0000627370
0005277340
0006727600
0141100000
0625776960
0600320480
0768657860
0A5700A670
0606006060
1506006060
4756007553
4216007352
60388863A3
7243050076
1A66666981
0330000000
ENDCHAR
STARTCHAR OE
ENCODING 338
SWIDTH 831 0
DWIDTH 13 0
BBX 14 13 0 -1
BITMAP
01411003100010
0625778A779671
06003204805033
07686578766670
0A570096710000
06060060656600
15060060600600
47560095666500
42160073620000
6038A657777670
72433205632060
1A6666AB766660
03300001000000
ENDCHAR
STARTCHAR oe
ENCODING 339
SWIDTH 831 0
DWIDTH 13 0
BBX 14 13 0 -1
BITMAP
01411003100010
0625778A779671
06003204805033
07686578766670
0A570096710000
06060060656600
15060060600600
47560095666500
42160073620000
6038A657777670
72433205632060
1A6666AB766660
03300001000000
ENDCHAR
STARTCHAR Racute
ENCODING 340
SWIDTH 532 0
DWIDTH 9 0
BBX 9 16 0 -1
BITMAP
0000043000
0000156000
0000725000
0063760000
2B14660000
2A00076620
1659510060
47463A6720
4208721820
2409968200
3418406000
4549924500
3307270600
5106061160
6326016530
0340002100
ENDCHAR
STARTCHAR racute
ENCODING 341
SWIDTH 532 0
DWIDTH 9 0
BBX 9 16 0 -1
BITMAP
0000043000
0000156000
0000725000
0063760000
2B14660000
2A00076620
1659510060
47463A6720
4208721820
2409968200
3418406000
4549924500
3307270600
5106061160
6326016530
0340002100
ENDCHAR
STARTCHAR Rcommaaccent
ENCODING 342
SWIDTH 532 0
DWIDTH 9 0
BBX 9 16 0 -4
BITMAP
0063000000
2B14560000
2A00076620
1659510060
47463A6720
4208721820
2409968200
3418406000
4549924500
3307270600
5106061160
6326016530
0343402100
0006330000
0052600000
0067100000
ENDCHAR
STARTCHAR rcommaaccent
ENCODING 343
SWIDTH 532 0
DWIDTH 9 0
BBX 9 16 0 -4
BITMAP
0063000000
2B14560000
2A00076620
1659510060
47463A6720
4208721820
2409968200
3418406000
4549924500
3307270600
5106061160
6326016530
0343402100
0006330000
0052600000
0067100000
ENDCHAR
STARTCHAR Rcaron
ENCODING 344
SWIDTH 532 0
DWIDTH 9 0
BBX 9 18 0 -1
BITMAP
0001010000
0076177000
0061916000
0015470000
0006850000
0063000000
2B14560000
2A00076620
1659510060
47463A6720
4208721820
2409968200
3418406000
4549924500
3307270600
5106061160
6326016530
0340002100
ENDCHAR
STARTCHAR rcaron
ENCODING 345
SWIDTH 532 0
DWIDTH 9 0
BBX 9 18 0 -1
BITMAP
0001010000
0076177000
0061916000
0015470000
0006850000
0063000000
2B14560000
2A00076620
1659510060
47463A6720
4208721820
2409968200
3418406000
4549924500
3307270600
5106061160
6326016530
0340002100
ENDCHAR
STARTCHAR Sacute
ENCODING 346
SWIDTH 442 0
DWIDTH 7 0
BBX 8 17 0 -1
BITMAP
00005100
00052600
00254300
00374000
00021430
38894260
75631370
70285320
16061000
06726000
01605200
00435700
000A1420
566A4071
60066170
74567710
12000000
ENDCHAR
STARTCHAR sacute
ENCODING 347
SWIDTH 442 0
DWIDTH 7 0
BBX 8 17 0 -1
BITMAP
00005100
00052600
00254300
00374000
00021430
38894260
75631370
70285320
16061000
06726000
01605200
00435700
000A1420
566A4071
60066170
74567710
12000000
ENDCHAR
STARTCHAR Scircumflex
ENCODING 348
SWIDTH 442 0
DWIDTH 7 0
BBX 8 17 0 -1
BITMAP
00568000
01537200
06191600
05707600
00021430
38894260
75631370
70285320
16061000
06726000
01605200
00435700
000A1420
566A4071
60066170
74567710
12000000
ENDCHAR
STARTCHAR scircumflex
ENCODING 349
SWIDTH 442 0
DWIDTH 7 0
BBX 8 17 0 -1
BITMAP
00568000
01537200
06191600
05707600
00021430
38894260
75631370
70285320
16061000
06726000
01605200
00435700
000A1420
566A4071
60066170
74567710
12000000
ENDCHAR
STARTCHAR Scedilla
ENCODING 350
SWIDTH 442 0
DWIDTH 7 0
BBX 8 16 0 -4
BITMAP
00021430
38894260
75631370
70285320
16061000
06726000
01605200
00435700
000A1420
566A4071
60066170
74579810
12054200
04577200
05365000
00300000
ENDCHAR
STARTCHAR scedilla
ENCODING 351
SWIDTH 442 0
DWIDTH 7 0
BBX 8 16 0 -4
BITMAP
00021430
38894260
75631370
70285320
16061000
06726000
01605200
00435700
000A1420
566A4071
60066170
74579810
12054200
04577200
05365000
00300000
ENDCHAR
STARTCHAR Scaron
ENCODING 352
SWIDTH 442 0
DWIDTH 7 0
BBX 8 18 0 -1
BITMAP
00101000
07627700
06191700
01537100
00586000
00021430
38894260
75631370
70285320
16061000
06726000
01605200
00435700
000A1420
566A4071
60066170
74567710
12000000
ENDCHAR
STARTCHAR scaron
ENCODING 353
SWIDTH 442 0
DWIDTH 7 0
BBX 8 18 0 -1
BITMAP
00101000
07627700
06191700
01537100
00586000
00021430
38894260
75631370
70285320
16061000
06726000
01605200
00435700
000A1420
566A4071
60066170
74567710
12000000
ENDCHAR
STARTCHAR Tcommaaccent
ENCODING 354
SWIDTH 453 0
DWIDTH 7 0
BBX 9 16 -1 -4
BITMAP
0221311300
0634765530
1500310140
0569595600
0007451000
0008261000
0006060000
0006251000
0008471000
0006060000
0006050000
0007571000
0002400000
0006330000
0052600000
0067100000
ENDCHAR
STARTCHAR tcommaaccent
ENCODING 355
SWIDTH 453 0
DWIDTH 7 0
BBX 9 16 -1 -4
BITMAP
0221311300
0634765530
1500310140
0569595600
0007451000
0008261000
0006060000
0006251000
0008471000
0006060000
0006050000
0007571000
0002400000
0006330000
0052600000
0067100000
ENDCHAR
STARTCHAR Tcaron
ENCODING 356
SWIDTH 453 0
DWIDTH 7 0
BBX 9 17 -1 0
BITMAP
0001001000
0054466200
0043635100
0006174000
0004690000
0221311300
0634765530
1500310140
0569595600
0007451000
0008261000
0006060000
0006251000
0008471000
0006060000
0006050000
0007571000
ENDCHAR
STARTCHAR tcaron
ENCODING 357
SWIDTH 453 0
DWIDTH 7 0
BBX 9 17 -1 0
BITMAP
0001001000
0054466200
0043635100
0006174000
0004690000
0221311300
0634765530
1500310140
0569595600
0007451000
0008261000
0006060000
0006251000
0008471000
0006060000
0006050000
0007571000
ENDCHAR
STARTCHAR Tbar
ENCODING 358
SWIDTH 455 0
DWIDTH 7 0
BBX 9 13 -1 -1
BITMAP
0100100000
0756866730
1500410150
0668586710
0006151000
0039462000
0244556300
0330101500
005A696000
0006060000
0006060000
0008371000
0000310000
ENDCHAR
STARTCHAR tbar
ENCODING 359
SWIDTH 455 0
DWIDTH 7 0
BBX 9 13 -1 -1
BITMAP
0100100000
0756866730
1500410150
0668586710
0006151000
0039462000
0244556300
0330101500
005A696000
0006060000
0006060000
0008371000
0000310000
ENDCHAR
STARTCHAR Utilde
ENCODING 360
SWIDTH 583 0
DWIDTH 9 0
BBX 9 17 0 -1
BITMAP
0005684540
0025377250
0061916600
005707A300
0020002200
0847154450
0606041150
0606033150
2956057460
1506042060
2406015060
5646028560
5115018560
6038963570
7134600580
1A7666BA70
0340000000
ENDCHAR
STARTCHAR utilde
ENCODING 361
SWIDTH 583 0
DWIDTH 9 0
BBX 9 17 0 -1
BITMAP
0005684540
0025377250
0061916600
005707A300
0020002200
0847154450
0606041150
0606033150
2956057460
1506042060
2406015060
5646028560
5115018560
6038963570
7134600580
1A7666BA70
0340000000
ENDCHAR
STARTCHAR Umacron
ENCODING 362
SWIDTH 583 0
DWIDTH 9 0
BBX 9 16 0 -1
BITMAP
0001000000
0026557000
0027567000
0020002200
0847154450
0606041150
0606033150
2956057460
1506042060
2406015060
5646028560
5115018560
6038963570
7134600580
1A7666BA70
0340000000
ENDCHAR
STARTCHAR umacron
ENCODING 363
SWIDTH 583 0
DWIDTH 9 0
BBX 9 16 0 -1
BITMAP
0001000000
0026557000
0027567000
0020002200
0847154450
0606041150
0606033150
2956057460
1506042060
2406015060
5646028560
5115018560
6038963570
7134600580
1A7666BA70
0340000000
ENDCHAR
STARTCHAR Ubreve
ENCODING 364
SWIDTH 583 0
DWIDTH 9 0
BBX 9 17 0 -1
BITMAP
0066056100
0064164200
0051869000
0039665000
0020002200
0847154450
0606041150
0606033150
2956057460
1506042060
2406015060
5646028560
5115018560
6038963570
7134600580
1A7666BA70
0340000000
ENDCHAR
STARTCHAR ubreve
ENCODING 365
SWIDTH 583 0
DWIDTH 9 0
BBX 9 17 0 -1
BITMAP
0066056100
0064164200
0051869000
0039665000
0020002200
0847154450
0606041150
0606033150
2956057460
1506042060
2406015060
5646028560
5115018560
6038963570
7134600580
1A7666BA70
0340000000
ENDCHAR
STARTCHAR Uring
ENCODING 366
SWIDTH 583 0
DWIDTH 9 0
BBX 9 18 0 -1
BITMAP
0004561000
0016346000
0061755100
0066468000
0035555000
0020002200
0847154450
0606041150
0606033150
2956057460
1506042060
2406015060
5646028560
5115018560
6038963570
7134600580
1A7666BA70
0340000000
ENDCHAR
STARTCHAR uring
ENCODING 367
SWIDTH 583 0
DWIDTH 9 0
BBX 9 18 0 -1
BITMAP
0004561000
0016346000
0061755100
0066468000
0035555000
0020002200
0847154450
0606041150
0606033150
2956057460
1506042060
2406015060
5646028560
5115018560
6038963570
7134600580
1A7666BA70
0340000000
ENDCHAR
STARTCHAR Uhungarumlaut
ENCODING 368
SWIDTH 583 0
DWIDTH 9 0
BBX 9 17 0 -1
BITMAP
0000512400
0004266240
0016482700
0037567100
0021002200
0847154450
0606041150
0606033150
2956057460
1506042060
2406015060
5646028560
5115018560
6038963570
7134600580
1A7666BA70
0340000000
ENDCHAR
STARTCHAR uhungarumlaut
ENCODING 369
SWIDTH 583 0
DWIDTH 9 0
BBX 9 17 0 -1
BITMAP
0000512400
0004266240
0016482700
0037567100
0021002200
0847154450
0606041150
0606033150
2956057460
1506042060
2406015060
5646028560
5115018560
6038963570
7134600580
1A7666BA70
0340000000
ENDCHAR
STARTCHAR Uogonek
ENCODING 370
SWIDTH 583 0
DWIDTH 9 0
BBX 9 16 0 -4
BITMAP
0020002200
0847154450
0606041150
0606033150
2956057460
1506042060
2406015060
5646028560
5115018560
6038963570
7134600580
1A7666CA70
0340025600
0000054920
0000008270
0000000650
ENDCHAR
STARTCHAR uogonek
ENCODING 371
SWIDTH 583 0
DWIDTH 9 0
BBX 9 16 0 -4
BITMAP
0020002200
0847154450
0606041150
0606033150
2956057460
1506042060
2406015060
5646028560
5115018560
6038963570
7134600580
1A7666CA70
0340025600
0000054920
0000008270
0000000650
ENDCHAR
STARTCHAR Wcircumflex
ENCODING 372
SWIDTH 735 0
DWIDTH 12 0
BBX 12 16 0 -1
BITMAP
000036A00000
000061650000
000517442000
000363562000
566001203663
706036535106
605174056042
63469736A560
550668266060
060744235060
060664885060
076704763460
024606660510
007506660600
007876172700
002410014100
ENDCHAR
STARTCHAR wcircumflex
ENCODING 373
SWIDTH 735 0
DWIDTH 12 0
BBX 12 16 0 -1
BITMAP
000036A00000
000061650000
000517442000
000363562000
566001203663
706036535106
605174056042
63469736A560
550668266060
060744235060
060664885060
076704763460
024606660510
007506660600
007876172700
002410014100
ENDCHAR
STARTCHAR Ycircumflex
ENCODING 374
SWIDTH 484 0
DWIDTH 8 0
BBX 10 15 -1 0
BITMAP
00036A0000
0006164000
0051744200
0036366200
0672006650
4307006061
1702652160
0165596520
0072330700
0006604200
0003846000
0006026000
0026061000
0061050000
0016640000
ENDCHAR
STARTCHAR ycircumflex
ENCODING 375
SWIDTH 484 0
DWIDTH 8 0
BBX 10 15 -1 0
BITMAP
00036A0000
0006164000
0051744200
0036366200
0672006650
4307006061
1702652160
0165596520
0072330700
0006604200
0003846000
0006026000
0026061000
0061050000
0016640000
ENDCHAR
STARTCHAR Ydieresis
ENCODING 376
SWIDTH 484 0
DWIDTH 8 0
BBX 10 14 -1 0
BITMAP
0035336200
0060560600
0055565400
0672006650
4307006061
1702652160
0165596520
0072330700
0006604200
0003846000
0006026000
0026061000
0061050000
0016640000
ENDCHAR
STARTCHAR Zacute
ENCODING 377
SWIDTH 458 0
DWIDTH 7 0
BBX 9 16 -1 0
BITMAP
0000033000
0000155100
0000626000
0000770000
0000000000
0276865600
0420410830
0175765A20
0000A52400
0005217000
0017042000
0067160000
0160540000
0701A65600
1605410600
0388655500
ENDCHAR
STARTCHAR zacute
ENCODING 378
SWIDTH 458 0
DWIDTH 7 0
BBX 9 16 -1 0
BITMAP
0000033000
0000155100
0000626000
0000770000
0000000000
0276865600
0420410830
0175765A20
0000A52400
0005217000
0017042000
0067160000
0160540000
0701A65600
1605410600
0388655500
ENDCHAR
STARTCHAR Zdotaccent
ENCODING 379
SWIDTH 458 0
DWIDTH 7 0
BBX 9 15 -1 0
BITMAP
0001550000
0005150000
0002770000
0000100000
0276865600
0420410830
0175765A20
0000A52400
0005217000
0017042000
0067160000
0160540000
0701A65600
1605410600
0388655500
ENDCHAR
STARTCHAR zdotaccent
ENCODING 380
SWIDTH 458 0
DWIDTH 7 0
BBX 9 15 -1 0
BITMAP
0001550000
0005150000
0002770000
0000100000
0276865600
0420410830
0175765A20
0000A52400
0005217000
0017042000
0067160000
0160540000
0701A65600
1605410600
0388655500
ENDCHAR
STARTCHAR Zcaron
ENCODING 381
SWIDTH 458 0
DWIDTH 7 0
BBX 9 17 -1 0
BITMAP
0001001000
0065466200
0042736100
0006173000
0004680000
0000000000
0276865600
0420410830
0175765A20
0000A52400
0005217000
0017042000
0067160000
0160540000
0701A65600
1605410600
0388655500
ENDCHAR
STARTCHAR zcaron
ENCODING 382
SWIDTH 458 0
DWIDTH 7 0
BBX 9 17 -1 0
BITMAP
0001001000
0065466200
0042736100
0006173000
0004680000
0000000000
0276865600
0420410830
0175765A20
0000A52400
0005217000
0017042000
0067160000
0160540000
0701A65600
1605410600
0388655500
ENDCHAR
STARTCHAR AEacute
ENCODING 508
SWIDTH 797 0
DWIDTH 13 0
BBX 14 16 -1 0
BITMAP
00000000430000
00000001561000
00000006250000
00000007700000
00000002301010
00000786399656
00003307065006
00007035096664
000672A6460000
00060391096810
00440733150330
00952786396810
03318051171000
07038582189564
43060060065006
05650056676672
ENDCHAR
STARTCHAR aeacute
ENCODING 509
SWIDTH 797 0
DWIDTH 13 0
BBX 14 16 -1 0
BITMAP
00000000430000
00000001561000
00000006250000
00000007700000
00000002301010
00000786399656
00003307065006
00007035096664
000672A6460000
00060391096810
00440733150330
00952786396810
03318051171000
07038582189564
43060060065006
05650056676672
ENDCHAR
STARTCHAR Oslashacute
ENCODING 510
SWIDTH 612 0
DWIDTH 10 0
BBX 10 17 0 -1
BITMAP
0000025000
0000061500
0000436100
0000572000
0141100000
0625788760
0600325060
0768681280
0A57492870
0606505360
1509318060
475A057553
4252557452
61507863A3
7603250076
1707666981
0363000000
ENDCHAR
STARTCHAR oslashacute
ENCODING 511
SWIDTH 612 0
DWIDTH 10 0
BBX 10 17 0 -1
BITMAP
0000025000
0000061500
0000436100
0000572000
0141100000
0625788760
0600325060
0768681280
0A57492870
0606505360
1509318060
475A057553
4252557452
61507863A3
7603250076
1707666981
0363000000
ENDCHAR
STARTCHAR dotlessj
ENCODING 567
SWIDTH 482 0
DWIDTH 8 0
BBX 9 13 -1 -1
BITMAP
0000003100
0000073630
0000060510
0000060500
0000095620
0000060610
0572060600
2407185620
1712860610
00862A0600
0035026610
0004339710
0000641000
ENDCHAR
STARTCHAR circumflex
ENCODING 710
SWIDTH 308 0
DWIDTH 5 0
BBX 5 4 0 12
BITMAP
067700
244710
629060
671760
ENDCHAR
STARTCHAR caron
ENCODING 711
SWIDTH 310 0
DWIDTH 5 0
BBX 5 5 0 12
BITMAP
010100
761770
619160
154700
068500
ENDCHAR
STARTCHAR breve
ENCODING 728
SWIDTH 333 0
DWIDTH 5 0
BBX 6 4 0 12
BITMAP
660561
641642
528780
396650
ENDCHAR
STARTCHAR dotaccent
ENCODING 729
SWIDTH 166 0
DWIDTH 3 0
BBX 3 3 0 12
BITMAP
3530
6050
6540
ENDCHAR
STARTCHAR ring
ENCODING 730
SWIDTH 309 0
DWIDTH 5 0
BBX 5 5 0 12
BITMAP
055600
246340
728360
764770
455540
ENDCHAR
STARTCHAR ogonek
ENCODING 731
SWIDTH 226 0
DWIDTH 4 0
BBX 4 6 0 -4
BITMAP
0200
3560
6150
7660
4716
0272
ENDCHAR
STARTCHAR tilde
ENCODING 732
SWIDTH 410 0
DWIDTH 7 0
BBX 7 4 0 12
BITMAP
06775540
34476340
62916600
6617A200
ENDCHAR
STARTCHAR hungarumlaut
ENCODING 733
SWIDTH 361 0
DWIDTH 6 0
BBX 6 4 0 12
BITMAP
033051
065626
627543
773740
ENDCHAR
STARTCHAR uni0312
ENCODING 786
SWIDTH 202 0
DWIDTH 3 0
BBX 4 5 0 7
BITMAP
0110
0661
4261
7610
1200
ENDCHAR
STARTCHAR uni0315
ENCODING 789
SWIDTH 202 0
DWIDTH 3 0
BBX 4 5 0 7
BITMAP
0110
0661
4261
7610
1200
ENDCHAR
STARTCHAR uni0326
ENCODING 806
SWIDTH 201 0
DWIDTH 3 0
BBX 4 4 0 -4
BITMAP
0330
0652
6260
7700
ENDCHAR
STARTCHAR Wgrave
ENCODING 7808
SWIDTH 735 0
DWIDTH 12 0
BBX 12 16 0 -1
BITMAP
000036000000
000064200000
000051600000
000007500000
566001203663
706036535106
605174056042
63469736A560
550668266060
060744235060
060664885060
076704763460
024606660510
007506660600
007876172700
002410014100
ENDCHAR
STARTCHAR wgrave
ENCODING 7809
SWIDTH 735 0
DWIDTH 12 0
BBX 12 16 0 -1
BITMAP
000036000000
000064200000
000051600000
000007500000
566001203663
706036535106
605174056042
63469736A560
550668266060
060744235060
060664885060
076704763460
024606660510
007506660600
007876172700
002410014100
ENDCHAR
STARTCHAR Wacute
ENCODING 7810
SWIDTH 735 0
DWIDTH 12 0
BBX 12 16 0 -1
BITMAP
000000250000
000000615000
000004361000
000005710000
566001203663
706036535106
605174056042
63469736A560
550668266060
060744235060
060664885060
076704763460
024606660510
007506660600
007876172700
002410014100
ENDCHAR
STARTCHAR wacute
ENCODING 7811
SWIDTH 735 0
DWIDTH 12 0
BBX 12 16 0 -1
BITMAP
000000250000
000000615000
000004361000
000005710000
566001203663
706036535106
605174056042
63469736A560
550668266060
060744235060
060664885060
076704763460
024606660510
007506660600
007876172700
002410014100
ENDCHAR
STARTCHAR Wdieresis
ENCODING 7812
SWIDTH 735 0
DWIDTH 12 0
BBX 12 15 0 -1
BITMAP
000353362000
000605606000
000555654000
566001203663
706036535106
605174056042
63469736A560
550668266060
060744235060
060664885060
076704763460
024606660510
007506660600
007876172700
002410014100
ENDCHAR
STARTCHAR wdieresis
ENCODING 7813
SWIDTH 735 0
DWIDTH 12 0
BBX 12 15 0 -1
BITMAP
000353362000
000605606000
000555654000
566001203663
706036535106
605174056042
63469736A560
550668266060
060744235060
060664885060
076704763460
024606660510
007506660600
007876172700
002410014100
ENDCHAR
STARTCHAR Ygrave
ENCODING 7922
SWIDTH 484 0
DWIDTH 8 0
BBX 10 15 -1 0
BITMAP
0003600000
0006420000
0005160000
0000750000
0672006650
4307006061
1702652160
0165596520
0072330700
0006604200
0003846000
0006026000
0026061000
0061050000
0016640000
ENDCHAR
STARTCHAR ygrave
ENCODING 7923
SWIDTH 484 0
DWIDTH 8 0
BBX 10 15 -1 0
BITMAP
0003600000
0006420000
0005160000
0000750000
0672006650
4307006061
1702652160
0165596520
0072330700
0006604200
0003846000
0006026000
0026061000
0061050000
0016640000
ENDCHAR
STARTCHAR endash
ENCODING 8211
SWIDTH 591 0
DWIDTH 9 0
BBX 9 4 0 3
BITMAP
4668567660
5005005050
4657567670
0000000010
ENDCHAR
STARTCHAR emdash
ENCODING 8212
SWIDTH 726 0
DWIDTH 12 0
BBX 12 4 0 3
BITMAP
365575586560
500050050033
465575676571
000000000010
ENDCHAR
STARTCHAR quoteleft
ENCODING 8216
SWIDTH 291 0
DWIDTH 5 0
BBX 5 7 0 5
BITMAP
017610
033070
091510
265600
601500
705000
366000
ENDCHAR
STARTCHAR quoteright
ENCODING 8217
SWIDTH 291 0
DWIDTH 5 0
BBX 5 7 0 5
BITMAP
017610
033070
091510
265600
601500
705000
366000
ENDCHAR
STARTCHAR quotesinglbase
ENCODING 8218
SWIDTH 228 0
DWIDTH 4 0
BBX 5 6 -1 -3
BITMAP
001000
017710
060240
511600
277000
001000
ENDCHAR
STARTCHAR quotedblleft
ENCODING 8220
SWIDTH 532 0
DWIDTH 9 0
BBX 9 7 0 5
BITMAP
0176127600
0330751250
0915280500
2656445600
6015703300
7051606000
3660465000
ENDCHAR
STARTCHAR quotedblright
ENCODING 8221
SWIDTH 532 0
DWIDTH 9 0
BBX 9 7 0 5
BITMAP
0176127600
0330751250
0915280500
2656445600
6015703300
7051606000
3660465000
ENDCHAR
STARTCHAR quotedblbase
ENCODING 8222
SWIDTH 448 0
DWIDTH 7 0
BBX 8 6 -1 -3
BITMAP
00100010
01771556
06027407
51166052
27705550
00100100
ENDCHAR
STARTCHAR dagger
ENCODING 8224
SWIDTH 453 0
DWIDTH 7 0
BBX 7 14 0 -1
BITMAP
00021000
00747200
00605100
46906650
60735060
64A36670
02606010
00606000
00856100
00727100
00606000
00606000
00605100
00566000
ENDCHAR
STARTCHAR daggerdbl
ENCODING 8225
SWIDTH 462 0
DWIDTH 7 0
BBX 7 14 0 -1
BITMAP
00021000
00657300
00604300
36905660
60634260
54A35770
03605110
00606000
03855320
63826670
60606060
26806650
00604200
00566000
ENDCHAR
STARTCHAR bullet
ENCODING 8226
SWIDTH 275 0
DWIDTH 4 0
BBX 3 4 1 4
BITMAP
1100
7450
6150
3510
ENDCHAR
STARTCHAR ellipsis
ENCODING 8230
SWIDTH 605 0
DWIDTH 10 0
BBX 10 4 0 -1
BITMAP
1520430340
6165162534
6264471753
0310320220
ENDCHAR
STARTCHAR perthousand
ENCODING 8240
SWIDTH 1249 0
DWIDTH 20 0
BBX 20 12 0 0
BITMAP
01000000000000000000
29546105510000000000
51736504230000000000
40541432500000000000
41540474500000000000
45470550521010031000
37479352486463475472
00000264506465407565
00000516414224405404
00000505427414436504
00000505551605551605
00000352164594264692
ENDCHAR
STARTCHAR guilsinglleft
ENCODING 8249
SWIDTH 359 0
DWIDTH 6 0
BBX 6 8 0 2
BITMAP
000210
003571
163033
600640
757500
451361
026042
001760
ENDCHAR
STARTCHAR guilsinglright
ENCODING 8250
SWIDTH 359 0
DWIDTH 6 0
BBX 6 8 0 2
BITMAP
011000
366100
610550
054015
007574
261263
511610
176000
ENDCHAR
STARTCHAR fraction
ENCODING 8260
SWIDTH 266 0
DWIDTH 4 0
BBX 5 11 0 0
BITMAP
005500
014320
041500
074500
050500
052200
365000
516000
505000
505000
452000
ENDCHAR
STARTCHAR Euro
ENCODING 8364
SWIDTH 690 0
DWIDTH 11 0
BBX 11 13 0 -1
BITMAP
000051000000
000524596620
000600050060
004667765730
062A65400000
060605100000
269806000000
602957000000
624606000400
035309876350
005326150060
000866676620
000140000000
ENDCHAR
STARTCHAR partialdiff
ENCODING 8706
SWIDTH 519 0
DWIDTH 8 0
BBX 10 13 -1 -1
BITMAP
0000011000
0000658000
0000604200
0000421600
0000366900
0002760600
0057060510
17362A3660
3457743060
0760467060
0083006033
0003629671
0000052000
ENDCHAR
STARTCHAR minus
ENCODING 8722
SWIDTH 467 0
DWIDTH 7 0
BBX 7 4 0 3
BITMAP
36577660
60024060
54666670
02010010
ENDCHAR
STARTCHAR fi
ENCODING 64257
SWIDTH 741 0
DWIDTH 12 0
BBX 12 12 0 0
BITMAP
023010010320
273996567354
150650066042
140866646041
574600008653
330957106052
240601406050
474867108553
421600006051
330600006060
510600006051
466500006672
ENDCHAR
STARTCHAR fl
ENCODING 64258
SWIDTH 942 0
DWIDTH 15 0
BBX 16 12 0 0
BITMAP
0230100103200000
2739965673540000
1506500660420000
1408666460410000
5746000086530000
3309571060520000
2406014060500000
4748671085530000
4216000060520000
33060000606A6572
5106000060570006
4665000066786572
ENDCHAR
STARTCHAR .notdef
ENCODING -1
SWIDTH 200 0
DWIDTH 3 0
BBX 1 1 0 0
BITMAP
00
ENDCHAR
STARTCHAR .null
ENCODING -1
SWIDTH 0 0
DWIDTH 0 0
BBX 1 1 0 0
BITMAP
00
ENDCHAR
STARTCHAR nonmarkingreturn
ENCODING -1
SWIDTH 200 0
DWIDTH 3 0
BBX 1 1 0 0
BITMAP
00
ENDCHAR
ENDFONT
